<?xml version="1.0" encoding="utf-8"?>
<!-- Generator: Adobe Illustrator 18.1.0, SVG Export Plug-In . SVG Version: 6.00 Build 0)  -->
<svg version="1.1" xmlns="http://www.w3.org/2000/svg" xmlns:xlink="http://www.w3.org/1999/xlink" x="0px" y="0px"
	 viewBox="0 0 200 200" enable-background="new 0 0 200 200" xml:space="preserve">
<g id="圖層_6">
</g>
<g id="圖層_4" display="none">
	<rect x="-6.1" y="-6.7" display="inline" fill="#DA4291" width="212" height="1279.4"/>
</g>
<g id="圖層_1">
</g>
<g id="圖層_3">
	<g>
		<path d="M127.4,161.2l0.1,0.3l0.1,0.3l0.1,0.3c0,0.1,0.1,0.2,0.1,0.3c0.1,0.2,0.2,0.4,0.3,0.5c0.1,0.2,0.2,0.3,0.3,0.5
			c0.1,0.2,0.2,0.3,0.3,0.5c0.1,0.2,0.2,0.3,0.4,0.4l0.2,0.2l0.2,0.2c0.1,0.1,0.3,0.2,0.4,0.4c0.1,0.1,0.3,0.2,0.5,0.3
			c0.3,0.2,0.7,0.4,1,0.5c0.3,0.1,0.7,0.2,1.1,0.3c0.2,0,0.4,0.1,0.6,0.1c0.2,0,0.4,0,0.6,0l0.6,0l0.6-0.1l0.6-0.1l0.1,0.6l0.1,0.5
			c0.1,0.2,0.1,0.4,0.2,0.5c0.1,0.3,0.3,0.7,0.5,1c0.2,0.3,0.4,0.6,0.6,0.9c0.2,0.3,0.5,0.5,0.8,0.8c0.6,0.5,1.2,0.8,1.9,1.1
			c0.2,0.1,0.3,0.1,0.5,0.2c0.2,0.1,0.4,0.1,0.5,0.1c0.2,0,0.4,0.1,0.5,0.1l0.3,0l0.3,0l0.3,0h0h0l0.1,0l0.2,0l0.3,0
			c0.1,0,0.2,0,0.3,0c0.2,0,0.3-0.1,0.5-0.1c0.2,0,0.4-0.1,0.5-0.2c0.2-0.1,0.3-0.1,0.5-0.2c0.2-0.1,0.3-0.2,0.5-0.2
			c0.2-0.1,0.3-0.2,0.5-0.3c0.2-0.1,0.3-0.2,0.4-0.3c0.3-0.2,0.5-0.5,0.8-0.8c0.2-0.3,0.4-0.6,0.6-0.9c0.1-0.2,0.2-0.3,0.3-0.5
			c0.1-0.2,0.1-0.3,0.2-0.5l0.2-0.5l0.1-0.5l0.2-0.8l0.8,0.1l0.5,0.1l0.5,0c0.2,0,0.4,0,0.5,0c0.2,0,0.4-0.1,0.5-0.1
			c0.7-0.1,1.4-0.4,2-0.8c0.6-0.4,1.2-0.8,1.6-1.4c0.1-0.1,0.2-0.3,0.3-0.4c0.1-0.1,0.2-0.3,0.3-0.5c0.1-0.2,0.2-0.3,0.2-0.5
			l0.1-0.2l0.1-0.3l0.1-0.3l0,0l0,0l0,0l0-0.1l0-0.1l0.1-0.3c0-0.1,0-0.2,0-0.3c0-0.2,0.1-0.3,0.1-0.5c0-0.2,0-0.4,0-0.5
			c0-0.2,0-0.4,0-0.5c0-0.2,0-0.4-0.1-0.5c0-0.2-0.1-0.4-0.1-0.5c0-0.1-0.1-0.2-0.1-0.4c-7.8,2.1-16,3.2-24.5,3.2
			c-1.2,0-2.5,0-3.7-0.1C127.4,161.1,127.4,161.1,127.4,161.2z"/>
		<g>
			<path d="M103.3,187.2l-4.8-7.6v4.7c-0.4-0.1-0.7-0.2-0.9-0.2c-0.4,0-0.7,0.1-1,0.4c-0.3,0.3-0.4,0.6-0.4,1.1
				c0,0.4,0.2,0.8,0.5,1.3l0.4,0.7c0.7,1.3,1.1,2.5,1.1,3.6c0,1.7-0.6,3.2-1.8,4.3c-0.5,0.5-1.1,0.9-1.8,1.2c1.5,0.1,3,0.1,4.5,0.1
				c1.4,0,2.9,0,4.3-0.1V187.2z"/>
			<path d="M157,157.6c0,0.1,0.1,0.2,0.1,0.3c0.1,0.2,0.1,0.4,0.2,0.7c0.1,0.2,0.1,0.4,0.1,0.7c0,0.2,0,0.5,0,0.7c0,0.2,0,0.5,0,0.7
				c0,0.2,0,0.5-0.1,0.7c0,0.1,0,0.2-0.1,0.3l-0.1,0.3l0,0.1l0,0.1l0,0.1l0,0l-0.1,0.3l-0.1,0.3l-0.1,0.3c-0.1,0.2-0.2,0.4-0.3,0.6
				c-0.1,0.2-0.2,0.4-0.4,0.6c-0.1,0.2-0.3,0.4-0.4,0.6c-0.6,0.7-1.3,1.3-2,1.8c-0.8,0.5-1.6,0.8-2.5,1c-0.2,0-0.4,0.1-0.7,0.1
				c-0.2,0-0.5,0-0.7,0c-0.2,0-0.4,0-0.6,0c-0.1,0.2-0.1,0.4-0.2,0.6c-0.1,0.2-0.2,0.4-0.3,0.6c-0.1,0.2-0.2,0.4-0.3,0.6
				c-0.2,0.4-0.5,0.8-0.8,1.1c-0.3,0.3-0.6,0.7-1,0.9c-0.2,0.1-0.4,0.3-0.6,0.4c-0.2,0.1-0.4,0.3-0.6,0.4c-0.2,0.1-0.4,0.2-0.6,0.3
				c-0.2,0.1-0.4,0.2-0.6,0.2c-0.2,0.1-0.4,0.1-0.7,0.2c-0.2,0.1-0.5,0.1-0.7,0.1c-0.1,0-0.2,0-0.3,0l-0.3,0l-0.2,0l-0.1,0l0,0l0,0
				l0,0l0,0l-0.3,0l-0.3,0l-0.3,0c-0.2,0-0.5-0.1-0.7-0.1c-0.2,0-0.4-0.1-0.7-0.2c-0.2-0.1-0.4-0.1-0.6-0.2
				c-0.8-0.3-1.6-0.8-2.3-1.4c-0.7-0.6-1.2-1.3-1.7-2.1c-0.2-0.4-0.4-0.8-0.5-1.2c-0.1-0.2-0.1-0.4-0.2-0.6l0-0.1l-0.1,0
				c-0.2,0-0.4,0-0.7,0c-0.2,0-0.4,0-0.7-0.1c-0.2,0-0.4-0.1-0.7-0.1c-0.9-0.2-1.7-0.6-2.4-1.1c-0.2-0.1-0.4-0.3-0.5-0.4
				c-0.2-0.1-0.3-0.3-0.5-0.4l-0.2-0.2l-0.2-0.2c-0.1-0.2-0.3-0.3-0.4-0.5c-0.1-0.2-0.2-0.4-0.4-0.5c-0.1-0.2-0.2-0.4-0.3-0.6
				c-0.1-0.2-0.2-0.4-0.2-0.6c0-0.1-0.1-0.2-0.1-0.3l-0.1-0.3l-0.1-0.3l-0.1-0.3c0-0.1,0-0.2-0.1-0.3c-50.7-2.3-91-44.2-91-95.4
				c0-15.8,3.8-30.6,10.6-43.7c-3.4,2.3-6.7,4.8-9.8,7.5C16.2,46.9,3.4,72.7,3.4,101.5c0,44.1,29.8,81.2,70.4,92.2v-14.3h5.2v6.3
				h1.5v4.6h-1.5v4.6c0.8,0.2,1.6,0.3,2.3,0.5v-16h5.2v16.8c0.9,0.1,1.7,0.2,2.6,0.3v-4.7c0.5,0.3,0.9,0.5,1.3,0.5
				c0.5,0,0.8-0.1,1.1-0.4c0.3-0.3,0.5-0.6,0.5-1c0-0.3-0.2-0.8-0.7-1.7c-0.8-1.4-1.2-2.7-1.2-4.1c0-1.7,0.6-3.1,1.8-4.3
				c1.2-1.2,2.6-1.8,4.2-1.8c0.7,0,1.4,0.1,2.1,0.4v0.1h5.1l2.3,3.6l2.4-3.6h5.2l-5,7.8v9.3c32.9-3.3,60.9-23.2,75.4-51.3
				C175.8,150.6,166.7,154.9,157,157.6z"/>
		</g>
		<g>
			<path d="M136.6,171.5c-0.7-0.6-1.2-1.3-1.7-2.1c-0.2-0.4-0.4-0.8-0.5-1.2c-0.1-0.2-0.1-0.4-0.2-0.6l0-0.1l-0.1,0
				c-0.2,0-0.4,0-0.7,0c-0.2,0-0.4,0-0.7-0.1c-0.2,0-0.4-0.1-0.7-0.1c-0.9-0.2-1.7-0.6-2.4-1.1c-0.2-0.1-0.4-0.3-0.5-0.4
				c-0.2-0.1-0.3-0.3-0.5-0.4l-0.2-0.2l-0.2-0.2c-0.1-0.2-0.3-0.3-0.4-0.5c-0.1-0.2-0.2-0.4-0.4-0.5c-0.1-0.2-0.2-0.4-0.3-0.6
				c-0.1-0.2-0.2-0.4-0.2-0.6c0-0.1-0.1-0.2-0.1-0.3l-0.1-0.3l-0.1-0.3l-0.1-0.3c0-0.2-0.1-0.4-0.1-0.6c0-0.2,0-0.4,0-0.6
				c0-0.2,0-0.4,0-0.6c0.1-0.9,0.3-1.7,0.7-2.4c0.4-0.8,0.9-1.5,1.4-2c0.2-0.1,0.3-0.3,0.5-0.4c0.2-0.1,0.3-0.3,0.5-0.4
				c0.2-0.1,0.3-0.2,0.5-0.3l0.5-0.3l-0.5,0.3c-0.2,0.1-0.3,0.2-0.5,0.4c-0.2,0.1-0.3,0.3-0.4,0.4c-0.1,0.1-0.3,0.3-0.4,0.4
				c-0.3,0.3-0.5,0.6-0.7,1c-0.2,0.3-0.4,0.7-0.5,1.1c-0.3,0.7-0.4,1.5-0.4,2.3c0,0.2,0,0.4,0,0.6c0,0.2,0,0.4,0.1,0.6
				c0,0.2,0.1,0.4,0.1,0.6l0.1,0.3l0.1,0.3l0.1,0.3c0,0.1,0.1,0.2,0.1,0.3c0.1,0.2,0.2,0.4,0.3,0.5c0.1,0.2,0.2,0.3,0.3,0.5
				c0.1,0.2,0.2,0.3,0.3,0.5c0.1,0.2,0.2,0.3,0.4,0.4l0.2,0.2l0.2,0.2c0.1,0.1,0.3,0.2,0.4,0.4c0.1,0.1,0.3,0.2,0.5,0.3
				c0.3,0.2,0.7,0.4,1,0.5c0.3,0.1,0.7,0.2,1.1,0.3c0.2,0,0.4,0.1,0.6,0.1c0.2,0,0.4,0,0.6,0l0.6,0l0.6-0.1l0.6-0.1l0.1,0.6l0.1,0.5
				c0.1,0.2,0.1,0.4,0.2,0.5c0.1,0.3,0.3,0.7,0.5,1c0.2,0.3,0.4,0.6,0.6,0.9c0.2,0.3,0.5,0.5,0.8,0.8c0.6,0.5,1.2,0.8,1.9,1.1
				c0.2,0.1,0.3,0.1,0.5,0.2c0.2,0.1,0.4,0.1,0.5,0.1c0.2,0,0.4,0.1,0.5,0.1l0.3,0l0.3,0l0.3,0h0h0l0.1,0l0.2,0l0.3,0
				c0.1,0,0.2,0,0.3,0c0.2,0,0.3-0.1,0.5-0.1c0.2,0,0.4-0.1,0.5-0.2c0.2-0.1,0.3-0.1,0.5-0.2c0.2-0.1,0.3-0.2,0.5-0.2
				c0.2-0.1,0.3-0.2,0.5-0.3c0.2-0.1,0.3-0.2,0.4-0.3c0.3-0.2,0.5-0.5,0.8-0.8c0.2-0.3,0.4-0.6,0.6-0.9c0.1-0.2,0.2-0.3,0.3-0.5
				c0.1-0.2,0.1-0.3,0.2-0.5l0.2-0.5l0.1-0.5l0.2-0.8l0.8,0.1l0.5,0.1l0.5,0c0.2,0,0.4,0,0.5,0c0.2,0,0.4-0.1,0.5-0.1
				c0.7-0.1,1.4-0.4,2-0.8c0.6-0.4,1.2-0.8,1.6-1.4c0.1-0.1,0.2-0.3,0.3-0.4c0.1-0.1,0.2-0.3,0.3-0.5c0.1-0.2,0.2-0.3,0.2-0.5
				l0.1-0.2l0.1-0.3l0.1-0.3l0,0l0,0l0,0l0-0.1l0-0.1l0.1-0.3c0-0.1,0-0.2,0-0.3c0-0.2,0.1-0.3,0.1-0.5c0-0.2,0-0.4,0-0.5
				c0-0.2,0-0.4,0-0.5c0-0.2,0-0.4-0.1-0.5c0-0.2-0.1-0.4-0.1-0.5c0-0.2-0.1-0.3-0.2-0.5c-0.1-0.3-0.3-0.7-0.5-1
				c-0.2-0.3-0.4-0.6-0.6-0.9c-0.1-0.1-0.2-0.3-0.4-0.4c-0.1-0.1-0.3-0.2-0.4-0.4l-0.4-0.3l-0.5-0.3l-0.5-0.3l0.3-0.5l0.2-0.5
				c0.1-0.2,0.1-0.3,0.2-0.5c0.1-0.4,0.2-0.7,0.3-1.1c0.1-0.7,0.1-1.5-0.1-2.2c-0.1-0.7-0.4-1.5-0.8-2.1c-0.1-0.2-0.2-0.3-0.3-0.5
				c-0.1-0.2-0.2-0.3-0.4-0.4c-0.1-0.1-0.3-0.3-0.4-0.4l-0.2-0.2l-0.2-0.2l-0.2-0.2c0,0-0.2-0.1-0.2-0.2c-0.2-0.1-0.3-0.2-0.5-0.3
				c-0.2-0.1-0.3-0.2-0.5-0.3c-0.2-0.1-0.4-0.2-0.5-0.2c-0.2-0.1-0.4-0.1-0.6-0.2l-0.3-0.1l-0.3,0c-0.2,0-0.4-0.1-0.6-0.1
				c-0.2,0-0.4,0-0.6,0c-0.4,0-0.8,0-1.2,0.1c-0.4,0.1-0.8,0.2-1.2,0.3c-0.2,0.1-0.4,0.2-0.6,0.2c-0.2,0.1-0.4,0.2-0.5,0.3
				c-0.2,0.1-0.3,0.2-0.5,0.3l-0.5,0.4c-1.1-1.1-2.5-1.8-3.9-2c-3-20.8-7.3-49.7-8.6-58c5-4.4,9.6-9.9,13.4-16.3
				c5.7-9.5,8.9-19.5,9.7-28.7c-7.8,5-15.1,12.5-20.9,22c-3.1,5.2-5.5,10.6-7.2,15.9c-2.1-2.2-5.3-3.5-8.4-4.3
				c0.6-5.1,0.6-10.5,0-16c-1.2-11-4.7-20.9-9.7-28.7c-3.2,8.7-4.5,19.1-3.3,30.2c0.5,4.8,1.5,9.4,2.8,13.6l0,0l0,0
				c-0.2,0-0.3,0-0.5,0C94.5,73.8,75.4,83.6,79.2,92c2.7,5.9,9.1,9.5,16.8,11.6c-1.2,2.4-2.9,7.3-4.7,13.4
				c-4.4-0.9-8.7-2.4-12.5-4.9c-9.4-6.2-0.3,6.2,9.5,16.4c0,0,0,0,0,0c0,0,0,0,0.1,0c0.1,0.1,0.2,0.2,0.3,0.3
				c0.3,0.3,0.7,0.6,1.3,1.1c1.1,0.9,2.5,2,3.9,3c0.4,0.3,0.7,0.5,1.1,0.8c0.4,0.3,0.7,0.5,1.1,0.7c0.4,0.2,0.7,0.4,1,0.6
				c0.3,0.2,0.7,0.4,1,0.5c0.3,0.2,0.6,0.3,0.8,0.4c0.2,0.1,0.5,0.2,0.7,0.3c0.4,0.1,0.6,0.2,0.6,0.2l0,0.1c0,0-0.2-0.1-0.6-0.2
				c-0.2-0.1-0.4-0.1-0.7-0.2c-0.3-0.1-0.6-0.2-0.9-0.3c-0.3-0.1-0.7-0.3-1-0.5c-0.4-0.2-0.7-0.4-1.1-0.6c-0.4-0.2-0.8-0.4-1.2-0.7
				c-0.4-0.2-0.8-0.5-1.2-0.7c-0.8-0.5-1.5-1-2.2-1.5c-0.7-0.5-1.3-1-1.9-1.4c-0.5-0.4-1-0.8-1.3-1c0,0,0,0-0.1-0.1
				c-2.1,9.3-3.6,19-3.2,26.1l0,0c0.1,1.1,0.2,2.1,0.4,3c0.2,1.5,0.5,3.5,0.9,5.7c0.6,0.3,1.2,0.5,1.9,0.8
				c5.7,4.9,18.5,15.3,42.2,9.9c3.5-0.8,6.3-1.4,8.6-2c0,0,0,0-0.1,0C138,172.6,137.3,172.1,136.6,171.5z"/>
			<circle fill="#FFFFFF" cx="104" cy="87.7" r="2.5"/>
		</g>
		<g>
			<path d="M65.6,94c0.8,2.2,1.6,4.3,2.3,6.5c0.8,2.1,1.6,4.2,2.3,6.2c0.8,2,1.6,4,2.3,5.8c0.7,1.8,1.4,3.6,2.1,5.2
				c2.6,6.4,4.7,10.6,4.7,10.6c0.3,0.7,1.1,1.1,1.9,0.9c0.9-0.2,1.5-1.1,1.3-2c0,0-1.1-4.5-3-11.2c-0.5-1.7-1-3.5-1.6-5.4
				c-0.6-1.9-1.2-3.9-1.9-5.9c-0.7-2.1-1.4-4.2-2.1-6.3c-0.7-2.1-1.5-4.3-2.2-6.5c-0.6-1.7-1.2-3.5-1.9-5.2l-6.1,2.2
				C64.4,90.6,65,92.3,65.6,94z"/>
			<path d="M69.6,85.5c-0.2-0.5-0.3-0.9-0.5-1.4c-0.8-2.3-1.7-4.5-2.5-6.7l-5.9,2.1c0.7,2.2,1.4,4.5,2.2,6.7
				c0.2,0.5,0.3,0.9,0.5,1.4L69.6,85.5z"/>
			<path fill="#8FC31F" d="M58.7,68.3c0.4-0.3,1.7,0.7,2.2,0.9c0.5,0.2-0.6-1.8,1.6-1.1c1,0.3,2,0.2,2.8,0c-0.4-0.6-1-1.3-1.7-1.8
				c-4.3-3.6-1.5-7.5-1.5-7.5c-4.5,4-6.2,7.5-6.5,10.5c0.3,0.1,0.5,0.2,0.9,0.2C58,69.5,58.3,68.6,58.7,68.3z"/>
			<path d="M62.5,68.1c-2.2-0.7-1.1,1.4-1.6,1.1c-0.5-0.2-1.8-1.2-2.2-0.9c-0.4,0.3-0.7,1.2-2.2,1.1c-0.3,0-0.6-0.1-0.9-0.2
				c-0.6,5.7,4,9.2,4,9.2l6.8-2.1c0.4-1.1,1-4.9-1.1-8.2C64.5,68.3,63.5,68.4,62.5,68.1z"/>
			<path fill="#8FC31F" d="M63.3,69.2c0,0,0.1,1.2,1,1.3C65.3,70.6,63.3,69.2,63.3,69.2z"/>
		</g>
		<g>
			<path fill-rule="evenodd" clip-rule="evenodd" fill="#8FC31F" d="M171,45.2c-0.1,0.1-0.3-0.2-0.4,0l-0.2-0.3c0-0.1,0.4,0.3,0.2,0
				C170.8,44.9,170.9,45.1,171,45.2z M172.3,46.1c-0.1,0-0.2-0.2-0.3-0.1c-0.2-0.1,0-0.2,0-0.3c-0.1-0.2-0.5-0.5-0.2-0.5
				C172.1,45.6,172.3,45.9,172.3,46.1z M170.9,45.3l0.4,0.5C171.1,45.9,170.6,45.4,170.9,45.3z M175.6,50c-0.2-0.2-0.2-0.1-0.4-0.5
				c-0.1-0.2-0.2,0.1-0.4,0c-0.2-0.3-0.4-0.6-0.7-1c-0.2-0.3,0.2,0.1,0.3,0.2c0.1-0.1-0.1-0.4,0.1-0.5c-0.1-0.2-0.2,0.1-0.4,0
				c-0.4-0.5-0.3-0.8-0.3-1.1c-0.3-0.2-0.5-0.5-0.5-0.8c0.4,0.3,0.7,1.2,0.9,1.6c0-0.1-0.1-0.3,0-0.3c0.2,0.4,0.5,0.8,0.3,0.9
				c0.2,0.6,0.8,0.8,1.1,1.3c0,0-0.1,0.2,0,0.3c0.2-0.1-0.1-0.4,0.2-0.4c0.1,0.4,0.3,0.4,0.5,0.7c0.1,0.2,0.1,0.4,0.3,0.6
				c-0.1,0-0.1-0.1-0.2-0.2c-0.4-0.2-0.7,0.1-1.1-0.4c0.2,0.2,0.4,0,0.7,0.1c0.1-0.1-0.1-0.2-0.1-0.3c-0.2,0-0.3,0-0.5,0.1
				C175.4,50.1,175.5,50.1,175.6,50z M172.3,47.1c-0.2,0.2-0.4-0.2-0.5-0.4C172,46.6,172.2,46.9,172.3,47.1z M173.8,49.2l-0.1-0.2
				c-0.3-0.3-0.1-0.4-0.2-0.5c-0.6-0.9,0.1,0.1,0.3,0.2C173.8,48.8,174,49.1,173.8,49.2z M172.7,47.9c-0.2-0.2-0.1-0.3-0.2-0.4
				c0.2,0,0.4,0.5,0.6,0.2C173.2,47.8,172.8,47.9,172.7,47.9z M172.5,46.3c-0.2-0.3,0.2-0.1,0.3,0.1c0.1-0.2-0.5-0.7-0.4-0.8
				c0.3,0.1,0.2,0.4,0.5,0.6c-0.1,0.1,0.1,0.4-0.1,0.5C172.6,46.6,172.7,46.3,172.5,46.3z M170.8,44.5c0.2-0.3,0.8,0.6,0.5,0.6
				C171.2,44.8,171.1,44.7,170.8,44.5z M108,7.9c0.1-0.2-0.4-0.1-0.6-0.2c0.1-0.1,0.6-0.1,0.6,0.1c0.2,0,0.1-0.2,0.3-0.2
				c0.3,0.1,0.7,0.1,0.9,0.2c0,0-0.1,0.2,0,0.2c0.1,0,0.8,0.1,0.5,0.2c-0.5,0-0.5-0.2-0.7-0.3c-0.3,0-0.6,0-0.7,0
				c0.1,0.3,0.4,0,0.7,0.1c0.3,0.3,2.2,0.3,2.9,0.6C111,8.5,110,8.4,109,8.2c-1-0.1-1.9-0.3-2.8-0.4c0.2-0.1,0.5,0,0.8,0
				C107.5,7.9,107.8,8,108,7.9z M104.1,8.3c-0.2,0.2-0.6,0-1,0.1c-0.2,0-0.1,0-0.5,0C102.5,7.9,104,8.3,104.1,8.3z M105.1,8.6
				c0.1,0,0.2-0.1,0-0.2c-0.2-0.1-0.3,0.1-0.1,0.1c-0.2,0.2-0.6-0.1-0.9-0.1l0-0.1c0.9,0,1.8-0.1,2.5,0c0.4,0,0.4,0.2,0.9,0.2
				c0.1,0.1,0,0.1,0,0.2c0.1,0.2,0.6,0.2,0.9,0.3c0.1,0.2-1-0.2-0.7,0c-0.3,0.2-0.3-0.2-0.4-0.3c-0.3,0-0.3-0.1-0.3-0.2
				c-0.1,0-0.4,0-0.5,0c-0.1,0,0-0.2-0.2-0.1c-0.1,0-0.1,0.1,0,0.1c0.1,0.2,0.2,0,0.6,0.2c0,0-0.2,0.1-0.1,0.1
				c0.2,0.1,0.7,0,0.6,0.2C106.3,8.8,105.8,8.7,105.1,8.6z M105.4,8.4c0.2,0,0.2,0.2,0.6,0.2C106.1,8.4,105.5,8.3,105.4,8.4z
				 M172.1,45.4c-0.3-0.4-0.1-0.5-0.5-1c0.4,0.1,0.6,0.4,0.6,0.7c0.3,0.1,0.7,0.4,0.7,0.8c0,0.3-0.1-0.3-0.3-0.5
				C172.4,45.3,172.3,45.4,172.1,45.4z M101.7,8.5c-0.5,0-1-0.3-0.3-0.3C101,8.4,101.8,8.3,101.7,8.5z M102.7,8.2l-0.6,0
				C101.9,7.9,102.9,8,102.7,8.2z M170.3,44.4l0.2,0.3l-0.2,0.2l-0.2-0.3C170.3,44.7,170.1,44.5,170.3,44.4z M108.8,9.2
				c-0.1,0.1-0.5,0.1-0.6,0.2c-0.4-0.1-0.9-0.1-1.3-0.2c-0.4,0-0.8-0.1-1.2-0.2c0.7-0.1,1.5,0.2,2.2,0.2
				C108.3,9.2,108.4,9.1,108.8,9.2z M143.6,22.5c-0.5,0.1-1-0.3-1.7-0.8c0.2-0.2,0.5,0.2,0.8,0.4C143,22.4,143.3,22.4,143.6,22.5z
				 M176,51.3c-0.3-0.4-0.1,0.3-0.4-0.1c0,0.1,0.1,0.3,0,0.3c-0.2-0.1-0.2-0.3-0.3-0.5c-0.1-0.2-0.4-0.5-0.2-0.6
				c0.2,0.2,0.2,0.4,0.3,0.5c0.1,0.2,0.2-0.1,0.2-0.1c0.2,0,0.3,0.4,0.4,0.1c0.2,0.5,0.5,0.5,0.6,0.9c-0.1,0-0.2,0-0.2,0
				C176.2,51.6,175.8,51.3,176,51.3z M110.9,9.7c-0.2,0.1-0.5,0-0.7-0.1c-0.1,0-0.1,0.1-0.1,0.1c-0.3-0.2-0.6,0-0.8-0.1
				c-0.1,0-0.5,0-0.4-0.2c0.5,0.1,0.8-0.1,1.1,0C110.3,9.5,110.4,9.7,110.9,9.7z M57,16.4c-0.2,0,0.9-0.6,0.9-0.4
				c-0.2,0.1-0.2,0-0.5,0.2c-0.3,0.1,0.1,0,0.2,0c0.5-0.2,0.2-0.3,0.7-0.5c0,0.1-0.4,0.4-0.8,0.6C57.3,16.4,57.3,16.3,57,16.4z
				 M66.2,12.7c0.3-0.1,0.7-0.3,0.7-0.2c-0.2,0.1-0.2,0-0.6,0.1c-0.1,0.1,0.5-0.1,0.4,0c-0.3,0.1-1.1,0.2-0.9,0.3
				c-0.1,0.1-0.6,0.2-0.6,0.1c0.1-0.1,0.3-0.1,0.5-0.2c0.1,0,0.1-0.1,0.1-0.1C65.9,12.8,66.1,12.8,66.2,12.7z M64.4,12.9
				c0.3-0.2,1.2-0.4,1.7-0.7c-0.1,0.1-0.3,0.2-0.2,0.3c-0.4,0.2-0.2,0-0.3-0.1c-0.3,0.1-0.1,0.1-0.2,0.2c-0.1,0-0.3,0.1-0.2,0.1
				c0,0.1,0,0.1,0.2,0.1c0.1,0,0.1-0.1,0.1-0.1c0.1,0,0.5,0,0.7-0.1c-0.1,0.1-0.6,0.3-0.7,0.2c-0.6,0.2-0.5,0.3-1.1,0.4
				c0-0.1,0.4-0.2,0.7-0.3l0-0.1c-0.4,0.2-0.4,0.3-0.9,0.4c-0.1,0.1-0.1,0.1-0.1,0.1c-0.3,0.1-0.2,0-0.5,0.1
				c-0.3,0.1-0.2,0.2-0.7,0.3c0-0.1,0.3-0.2,0.6-0.4c0.4-0.2,0.3-0.2,0.4-0.4C64.4,12.9,64,13.2,64.4,12.9
				C64.6,12.9,64.5,12.9,64.4,12.9z M58.5,16.1c-0.1,0.1-0.2,0.1-0.4,0.2c-0.2,0.1-0.3,0.2-0.4,0.2c-0.3,0.1-0.5,0.1-0.8,0.3
				c0.2-0.3,0.8-0.3,1.2-0.6C58.2,16.2,58.3,16.1,58.5,16.1z M60,15.3c0.1,0-0.5,0.3-0.5,0.3c-0.3,0.1-0.4,0.3-0.8,0.5
				c0.5-0.3,0.1-0.2-0.3,0c0.4-0.3,0.9-0.4,1.5-0.7C59.9,15.4,60,15.4,60,15.3z M70,11.5l-0.3,0.1c0-0.1,0.1-0.2,0.4-0.3
				C70.2,11.4,69.9,11.4,70,11.5z M69.8,11.1c-0.2,0.1-0.2,0-0.6,0.1c-0.1,0.1-0.1,0.1-0.3,0.2c0-0.1,0-0.1-0.1-0.1
				C69,11.2,69.7,10.9,69.8,11.1z M68.6,11.4c-0.1,0.2-0.5,0.2-1,0.4c0.3,0.1-0.8,0.2-1.1,0.5c-0.1-0.1,0.6-0.3,0.9-0.4
				C67.8,11.6,68.3,11.4,68.6,11.4z M68.9,11.5c0,0-0.1,0.1-0.2,0.1c0,0.1,0.1,0.1,0.3,0c0,0-0.6,0.3-0.2,0.2c0,0.1-0.4,0.1-0.5,0.1
				c-0.1,0-0.3,0.1-0.5,0.2c-0.1,0-0.1,0-0.1,0c-0.2,0-0.4,0.2-0.4,0.1c-0.2,0.1-0.6,0.2-0.5,0.1c0.3-0.1,0.7-0.2,1-0.3
				c0.2,0,0.5,0.1,0.7-0.2c-0.2,0-0.8,0.2-0.7,0.1C68.4,11.6,68.4,11.7,68.9,11.5z M57.1,16.7C57.2,16.6,57.2,16.6,57.1,16.7
				c-0.4,0.3-1.5,0.8-2.2,1.2c-0.4,0.2-0.4,0.2,0,0C55.6,17.4,56.4,17,57.1,16.7z M68.3,12.2c-0.2,0.1-0.1,0.2-0.5,0.4
				c0.3-0.2-0.3-0.1,0.2-0.2c-0.1,0-0.6,0.2-0.5,0c0.5,0,1-0.3,1.6-0.5c-0.3,0.2,0.2,0,0.2,0.1C68.7,12.1,68.8,12,68.3,12.2z
				 M68.2,12.6c0.4,0-0.8,0.2-0.8,0.3c-0.3,0.1-0.5,0.2-0.8,0.2c0.4-0.2,1-0.5,1.2-0.5C67.5,12.8,67.8,12.7,68.2,12.6z M60.2,15
				c-0.2,0.1-0.2,0.2-0.3,0.2c-0.3,0.1-0.2,0-0.5,0.1c0.2-0.2-0.1-0.1,0.4-0.4c0.1,0-0.2,0.2-0.1,0.2c0.3-0.1,0.6-0.4,0.3-0.3
				c0,0,0.1-0.1,0.1-0.1l0.2-0.1C60.5,14.8,60.1,14.9,60.2,15c0.5-0.3,0.5-0.4,1-0.5c0,0.1-0.2,0.2-0.4,0.3
				C60.4,15,60.4,14.9,60.2,15z M47.6,21.8c0.2-0.1-0.8,0.5-1.1,0.7C46.7,22.4,47.2,22.1,47.6,21.8z M51.5,19.1
				c-0.2,0.1-0.5,0.2-0.8,0.5c0-0.1,0.7-0.5,0.7-0.4c0-0.1,0.4-0.3,0.5-0.4c-0.4,0.1-1,0.6-1.1,0.7c0,0,0,0,0,0
				c-0.2,0.1-0.3,0.2-0.4,0.3c-0.2,0.1-0.3,0.1-0.3,0.2c-0.3,0.2-0.6,0.4-0.7,0.4c-0.4,0.3-0.1-0.1-0.4,0.2c-0.1,0.1,0,0,0.1,0
				c-0.1,0.1-0.6,0.4-0.8,0.5c0.1-0.1,0.4-0.3,0.5-0.4c0,0-0.1,0.1-0.1,0c-0.2,0.2-0.3,0.2-0.5,0.4c0.1-0.1-0.8,0.5-1,0.6
				c0.2-0.1,0.3-0.3,0.6-0.4c0,0-0.3,0.2-0.4,0.3c0.3-0.2,1.4-1.1,2.1-1.5c0.2-0.1,0.2-0.1,0.2-0.1c0.1-0.1,0.1-0.1,0.2-0.2
				c0.2-0.1,0.2-0.1,0.2-0.1c0.1-0.1,0.2-0.1,0.3-0.2c0.2-0.1,0.5-0.3,0.8-0.5c0.5-0.3,0.9-0.6,1.3-0.8c0.4-0.3,0.8-0.4,1.3-0.6
				c0.2-0.1,0.3-0.2,0.3-0.2c0.7-0.4,1.4-0.7,2-1.1c0.1,0,0.2-0.1,0.3-0.1c-0.1,0.1-0.7,0.3-0.5,0.4c0.3-0.2,0.6-0.4,0.8-0.6
				c0.5-0.2,1.5-0.7,2.2-1c0.3-0.1,0.3-0.1,0.5-0.1c0.3-0.1,0.7-0.3,0.8-0.3c0,0.2-0.6,0.3-0.9,0.4c-0.3,0.2-0.7,0.4-1,0.5
				c-0.1,0.1-0.2,0.1-0.2,0.1c-0.1,0-0.3,0.1-0.3,0.1c-0.1,0.1-0.4,0.2-0.5,0.3c-0.4,0.2-0.5,0.2-0.9,0.5c-0.1-0.1,0.4-0.3,0-0.1
				c-0.2,0.1,0.1,0,0,0.1c-0.2,0.1-0.6,0.3-0.6,0.4c-0.9,0.4-1.4,0.7-2.1,1c-0.4,0.2-0.7,0.4-0.8,0.6c-0.3,0.1-0.6,0.3-0.9,0.5
				l0-0.1C51.6,19,51.5,19.1,51.5,19.1z M55.3,17c0,0-0.1,0-0.2,0.1c0,0.1,0.3-0.1,0.7-0.3c-0.1,0-0.1-0.1-0.3,0
				C55.2,16.9,55.6,16.8,55.3,17z M54.5,17.3c0.3-0.2,0.3-0.2,0.5-0.3c0,0,0.2-0.1,0.2-0.1c-0.4,0.2-0.2,0-0.6,0.2
				C54.8,17.1,54.4,17.3,54.5,17.3z M53.8,17.7c0.1,0,0.4-0.2,0.7-0.3c0.1-0.1-0.2,0-0.1,0C54,17.5,54.1,17.5,53.8,17.7z M49.2,20.2
				c-0.1,0-0.1,0.1-0.1,0c-0.2,0.2-0.5,0.4-0.5,0.4C48.9,20.4,49.2,20.3,49.2,20.2z M52.4,18.4c0.3-0.2,1.1-0.5,0.8-0.5
				C53.1,17.9,52.1,18.5,52.4,18.4z M52.1,18.7c0.1,0.1,1.1-0.6,1.1-0.7C52.6,18.3,52.8,18.3,52.1,18.7z M100.9,8.4
				c-0.4-0.1-0.2,0.2-0.6,0.1c0.1-0.2,0.5-0.1,0.4-0.4C100.9,8.1,100.9,8.2,100.9,8.4z M38.2,28.4c0.4-0.3,0.5-0.4,0.9-0.7
				C39.3,27.6,38.4,28.3,38.2,28.4z M56.8,16.5c-0.4,0.2-0.2,0-0.6,0.2c0.1-0.1,0.5-0.2,0.6-0.4C57.2,16.3,56.6,16.6,56.8,16.5z
				 M56,16.7c-0.1,0,0.2-0.1,0.2-0.2c0.3-0.1,0.5-0.2,0.7-0.4C56.8,16.3,56.4,16.4,56,16.7z M53.8,18.4l-0.4,0.2
				c0.1,0,0.1-0.1,0.1-0.1l-0.2,0.1c-0.1,0.1-0.1,0.1,0,0c-0.1,0.1-0.4,0.2-0.5,0.3c0,0,0.1,0,0.1,0c-0.3,0.1-0.6,0.3-1.1,0.5
				c0-0.1,0.5-0.3,0.4-0.3c0.1,0,0.3-0.1,0.3-0.1c0.1,0,0.1-0.1,0.1-0.1c0.2-0.1,0.4-0.2,1-0.5C53.6,18.4,53.8,18.3,53.8,18.4z
				 M176.9,53.2c-0.2,0.1-0.4-0.2-0.4-0.4C176.7,52.7,176.8,52.9,176.9,53.2z M54.5,17.8c-0.4,0.2-0.8,0.3-1,0.5
				c-0.4,0.2-0.3,0.1-0.7,0.3c-0.4,0.2-0.5,0.4-0.8,0.5c0.1-0.1,0.4-0.3,0.8-0.5C53.4,18.3,54.3,17.7,54.5,17.8z M54.7,17.7
				c0-0.2,0.9-0.5,1.4-0.8c-0.1,0.2-0.1,0.1,0.2,0C55.9,17.1,55.2,17.3,54.7,17.7z M53.7,17.9c-0.2,0.1-0.2,0.1-0.4,0.2
				C53.1,18.2,53.8,17.9,53.7,17.9c0.5-0.3,1-0.5,1.6-0.8C55.5,17.1,54,17.8,53.7,17.9z M38.7,28.1c0.3-0.2,0.6-0.4,0.8-0.6
				c0.1-0.1,0.3-0.2,0.5-0.3c0.2-0.1,0.5-0.4,0.9-0.6c0.2-0.1,0.3-0.2,0.5-0.4c1.4-0.9,2.4-1.5,3.4-2.1c-0.1,0.1-0.2,0.1-0.3,0.2
				c0.1,0,0.3-0.2,0.5-0.3c0.1,0,0.6-0.3,0.8-0.5c-0.3,0.1-0.6,0.3-0.9,0.5c0.4-0.3,0.7-0.5,1.2-0.7c-0.2,0.1,0.3-0.1-0.2,0.2
				c0.2-0.1,0.5-0.3,0.6-0.3c0,0-0.4,0.2-0.3,0.1l0.5-0.3c-0.7,0.4,0.2,0,0.4-0.2c0,0-0.2,0.1-0.3,0.2c-0.3,0.1,0.6-0.3,0.8-0.5
				c0.1,0,0.2-0.1,0.2-0.1c0.3-0.2,0.8-0.4,1.2-0.6c-0.5,0.3-1.2,0.7-1.2,0.8c-0.1,0.1-0.1,0-0.2,0.1c-0.3,0.2,0.1,0,0,0
				c-0.4,0.2-0.5,0.3-0.8,0.5c-0.1,0,0.2-0.1,0.4-0.2c0.1-0.1-0.8,0.4-0.8,0.5c-0.3,0.2-0.3,0.1-0.6,0.3L45.4,24
				c0,0,0.3-0.2,0.3-0.2c0.1-0.1,0.2-0.1,0.3-0.2c0.2-0.1,0.5-0.3,0.8-0.4c-0.9,0.5-1.9,1.1-2.8,1.6c0.1-0.1,0.1-0.1,0-0.1
				c-0.3,0.2-0.3,0.2-0.6,0.4c-0.3,0.2,0.3-0.1,0.1,0l-0.5,0.3c0.1,0,0.3-0.2,0.7-0.4c-0.2,0.2-1.1,0.6-1.5,0.9
				c0.1,0,0.1-0.1,0.1-0.1C42.1,26,42,26,41.8,26.1c0,0,0.1,0,0.2-0.1c-0.4,0.3-1.2,0.8-1.8,1.2c0.1-0.1,0.1-0.1-0.1,0.1
				c-0.2,0.1-0.4,0.3-0.2,0.1c0,0-0.4,0.3-0.6,0.4C39,27.9,39,28,38.7,28.1z M45.9,23.6c0,0,0.8-0.4,0.8-0.4
				C46.5,23.3,46.3,23.4,45.9,23.6z M44.1,24.7c0.3-0.2,0.4-0.2,0.3-0.1c0.5-0.3,0.1-0.1,0.3-0.2c0.2-0.1,1-0.5,0.9-0.6
				c-0.3,0.2-0.2,0.2-0.4,0.3C44.8,24.3,44.4,24.5,44.1,24.7z M41.9,26c0.4-0.2,0.5-0.3,0.7-0.4c0.1-0.1,0.7-0.4,0.5-0.3
				c0,0-0.5,0.3-0.5,0.3C42.5,25.7,42.2,25.9,41.9,26z M42.1,25.9c0,0-0.2,0.1-0.4,0.2C41.6,26.2,41.9,26,42.1,25.9z M41.4,26.4
				c0.3-0.2,0.3-0.2,0.4-0.3C41.7,26.2,41.6,26.2,41.4,26.4L41.4,26.4z M41.1,26.6c0.1-0.1,0.3-0.2-0.1,0
				C40.9,26.7,40.8,26.8,41.1,26.6z M39.7,27.5c-0.1,0.1-0.1,0.1,0.1-0.1c0,0-0.1,0.1-0.4,0.2C39.3,27.8,39.7,27.5,39.7,27.5z
				 M92,8.4c0.3,0,0.9-0.1,1,0.1c-0.5,0.1-0.7-0.1-1.2,0C91.8,8.4,92,8.4,92,8.4z M92.4,8.6c0.4,0.1-0.5,0.2-0.7,0.1
				C91.8,8.6,92.2,8.7,92.4,8.6z M88.5,8.9c0-0.1,1-0.4,1.4-0.2c0.2-0.1,0.4-0.1,0.7-0.1c0,0,0,0-0.1,0.1c0,0,0,0,0.1,0
				c-0.3,0.2-1.6-0.1-1.5,0.3C88.7,9,88.8,8.9,88.5,8.9z M93.3,8.4c0.6,0,0.6-0.2,1.2-0.2c0,0.2-0.7,0.2-0.9,0.3
				c-0.2,0-0.7-0.2-0.4-0.3c0-0.2-0.5,0.2-0.5,0c0-0.2,0.5-0.2,0.8-0.1C93.6,8.3,93.4,8.3,93.3,8.4z M90.1,8.3c0.8,0,1.1-0.1,1.9,0
				c-0.1,0.2-0.6,0.3-1.2,0.4c-0.2-0.2,0.5,0,0.5-0.2C90.9,8.2,90.3,8.5,90.1,8.3z M65.2,13.5C65.3,13.6,65.1,13.7,65.2,13.5
				c-0.1,0.2-0.5,0.3-0.4,0.2C64.9,13.6,65.1,13.6,65.2,13.5z M95.3,8.2c-0.3,0-0.6-0.1-1.2,0c0-0.1,0.6,0,0.5-0.2
				C94.9,8,95.4,8,95.3,8.2z M99.9,8.8c-0.1,0.1-1.2,0.1-1.5-0.1c-0.1-0.2,0.2,0,0.4,0C99.1,8.8,99.6,8.7,99.9,8.8z M88.8,8.4
				c-0.8,0.1-0.1,0.3-0.8,0.4c0.1-0.1,0.4-0.2,0.3-0.4c0.5,0,1-0.2,1.2,0C89.2,8.4,88.5,8.7,88.8,8.4z M97.8,8.9
				c-0.3,0.1-1.1,0-1.5,0C96.8,8.8,97.3,8.8,97.8,8.9z M96.5,8.4c-0.3-0.1-0.4,0-0.7-0.1c0-0.1,0.4-0.1,0.5-0.2
				C96.4,8.2,96.5,8.3,96.5,8.4z M99.6,8.2c0,0.1,0.2,0.2,0.5,0.2c-0.3,0.2-0.9-0.1-1.4,0c-0.1-0.1-0.1-0.2-0.3-0.2
				c-0.4,0,0.1,0.1,0,0.2c-0.1,0-0.3-0.1-0.5-0.1c-0.1-0.1,0.4-0.2,0-0.2c0-0.1,0.6-0.2,0.7-0.1c0.2,0,0.2-0.1,0.5-0.1
				c0.1,0.1-0.2,0.1-0.4,0.1c0,0.1,0.1,0.1,0.1,0.2C99.2,8.2,99.3,8,100,8c-0.3,0.2,0.2,0.1,0.5,0.1c0,0.1-0.2,0.1-0.1,0.2
				C99.9,8.4,100,8.2,99.6,8.2z M95.1,9c-0.3-0.1-0.7,0-1.2,0c-0.2,0-0.3,0-0.5,0C93.2,9,93.2,9,93,9c-0.9,0-2.1,0-3.3,0.1
				c0-0.3,0.8-0.2,1.1-0.2c0.3,0,0.5-0.2,0.8-0.1c0.1,0,0.1-0.1,0-0.1c0.1-0.1,0.5,0,0.5,0.1c1-0.1,1.7-0.1,2.5-0.2
				C94.7,8.8,95,8.9,95.1,9z M64.2,13.9c0.3,0-0.6,0.4-0.9,0.4C63.4,14.2,64.2,14.1,64.2,13.9z M62.7,13.7c0.2-0.1,0.5-0.1,0.7-0.2
				C63.5,13.6,62.6,13.8,62.7,13.7c-0.1,0.1-0.5,0.3-0.9,0.4c-0.3,0.1-0.6,0.2-0.9,0.4c0,0-0.2,0-0.5,0.1c0.3-0.2,0.8-0.3,1.3-0.5
				C62.1,14,62.4,13.8,62.7,13.7z M63.8,13.9c-0.1-0.1,0.4-0.2,0.2-0.2c0.2-0.1,0.3-0.1,0.4-0.1C64.2,13.7,64.3,13.8,63.8,13.9z
				 M64.4,13.6c0.3-0.1-0.2-0.1,0.3-0.3c0.2,0-0.3,0.3,0,0.2C64.7,13.5,64.4,13.6,64.4,13.6z M63.8,13.3c-0.3,0.1-0.5,0.1-0.7,0.2
				C62.7,13.6,64,13,63.8,13.3z M82.9,10.3c-0.5,0.1-0.5,0-0.8,0.1c0-0.3,0.7,0,0.6-0.3C83,10,82.9,10.2,82.9,10.3z M70.2,12.9
				c-0.6,0.3-1.4,0.4-2,0.6c-0.5,0.2-0.8,0.4-1.1,0.4c-0.1-0.1,0.4-0.2,0.7-0.3c0.2-0.1,0.4-0.2,0.5-0.2c0.2-0.1,0.2,0,0.2,0
				c0.1,0,0.4-0.2,0.6-0.1C69.7,13,69.6,13,70.2,12.9z M62.2,14.1c0.1-0.1,0.3-0.2,0.5-0.3C62.8,13.9,62.3,14.1,62.2,14.1z M61.2,15
				c-0.2,0-0.4,0.1-0.7,0.2c0.3-0.4,1.3-0.7,2.1-1c0.1-0.1,0.1-0.1,0.1-0.1c0.3,0,0.6-0.2,1-0.4c0.3-0.2,0.3,0,0.6-0.1
				c-0.3,0.2-0.8,0.3-1.2,0.5c-0.2,0.1-0.1,0.2-0.5,0.4c0,0,0.1-0.1,0.1-0.1C61.9,14.6,61.1,14.7,61.2,15z M63.4,14.8
				c-0.1,0.2-0.5,0.3-1,0.4c-0.1,0.1-0.9,0.4-0.9,0.3C62.2,15.3,63,14.9,63.4,14.8z M192,107.1c-0.1-0.6,0-1.5,0-2.1
				C192.1,105.6,192,106.4,192,107.1z M108.6,5.2c-0.1,0.2-0.5,0-0.7,0C108,5,108.3,5.1,108.6,5.2z M107.7,5.4l1.1,0.1
				C108.8,5.6,107.6,5.6,107.7,5.4z M107.9,4.8c0.1-0.2,0.3,0,0.6,0C108.5,4.9,108.1,4.9,107.9,4.8z M115.2,6.4
				c0.1-0.1,0.6,0.1,0.9,0.1C115.9,6.7,115.6,6.4,115.2,6.4z M107.7,4.2c-0.9,0-1.3-0.1-2-0.1c0.2-0.2-0.6,0-0.3-0.3
				c0.4,0.1,0.8,0.1,1.1,0.1c0,0,0,0.1,0,0.1c0.1,0.1,0.5,0,0.6,0c0.2,0,0-0.1,0.2-0.2c0.3,0.2,0.7,0.1,1.1,0.2c0.1,0,0.1-0.1,0-0.1
				c0.1-0.2,0.3,0.1,0.5,0.1c0,0.1-0.8,0.1-0.4,0.2c-0.3,0.1-0.6-0.2-0.3-0.3C108,4.2,107.7,4.1,107.7,4.2z M105.1,5.3
				c0.1-0.2,0.9,0,1.4,0C106.2,5.5,105.6,5.2,105.1,5.3z M117.4,5.9c-0.1,0.1,0.1,0.2,0.3,0.3c0.1,0,0.2-0.1,0.3-0.1
				c0.3,0.1,0.4,0.2,0.8,0.2c-0.3,0.1-0.1,0.2-0.4,0.2c-0.5-0.2,0-0.1,0.1-0.2c-0.4-0.1-0.5,0.2-1.1,0c0.1-0.3-0.2-0.2-0.7-0.3
				c0.1-0.3,0.5-0.2,1-0.1C117.6,6,117.5,5.9,117.4,5.9z M105.6,4.5c-0.1,0.1-0.7-0.1-1.1-0.1C104.5,4.2,105.3,4.4,105.6,4.5z
				 M106.9,3.7c0-0.1,0.4,0,0.6,0C107.5,3.9,107.1,3.8,106.9,3.7z M119.7,6.3c0.2,0,0.4-0.1,0.8,0C120.4,6.4,120,6.3,119.7,6.3z
				 M123,7.1C123,7.1,122.9,7,122.7,7c0.2,0,0.4-0.1,0.8,0C123.4,7.1,123.1,7,123,7.1z M104.6,5.3c-1.7-0.1-2.1-0.1-3.8-0.2
				c-0.4-0.1,0.4,0,0.7,0c0.4,0,1,0,1.6,0c0.6,0,1.2,0.1,1.7,0.1C104.9,5.3,104.8,5.3,104.6,5.3z M128,8.3c0.5,0.1,0.4,0.3,0.2,0.4
				C127.9,8.6,128.1,8.4,128,8.3z M133.6,9.4c0.3,0.1,0.5,0.2,0.4,0.4C133.7,9.6,133.5,9.5,133.6,9.4z M128.9,7.8
				c0.7,0.1,1.6,0.5,2.3,0.9c0.4,0.2,0.3-0.1,0.8,0.1c0,0-0.1,0-0.2,0.1c0.6,0.3,0.9,0.2,1.3,0.3c-0.3,0.3,0.2,0.4,0.4,0.6
				c-0.4,0.2-1.1-0.4-1.2-0.6c-0.2,0.2-0.8,0.3-1.1,0c0-0.2,0.5,0.1,0.5,0c0-0.2-0.4-0.1-0.5-0.1c-0.1-0.1-0.6-0.1-0.7-0.2
				c0,0,0.1-0.1,0-0.1c-0.1-0.1-0.3,0-0.5,0c-0.2,0-0.1-0.1-0.2-0.1c-0.2-0.1-0.4,0-0.6-0.2c0,0-0.2-0.1-0.2-0.1
				C129.1,8.1,129.6,8,128.9,7.8z M129.4,8.2c0.5,0.1,0.8,0.7,1,0.2C130,8.3,129.5,8,129.4,8.2z M119,7.1c-0.1,0.2-0.6,0-0.9-0.1
				C118.2,6.8,118.7,7.1,119,7.1z M119.3,6.8c-0.3,0.1-1-0.2-1.5-0.2C118.1,6.5,118.8,6.8,119.3,6.8z M135.1,12.1
				c0.3-0.1,0.5,0.1,0.9,0.3C136.3,12.6,135.4,12.2,135.1,12.1z M131.2,10.6c0.5,0,1,0.3,1.6,0.5c0.5,0.2,2.3,1,1.3,0.6
				c-0.4-0.1-0.9-0.4-1.5-0.6C132.2,10.9,131.6,10.7,131.2,10.6z M163.4,33.5c0,0.4-0.7-0.6-1-0.8c0.3,0.1,0.7,0.3,0.7,0.6
				C163.2,33.4,163.3,33.5,163.4,33.5z M164.5,34.9c-0.3-0.3-0.5-0.7-1-1C163.9,33.9,164.7,34.6,164.5,34.9z M164.7,35.8
				c0.2,0.2-0.2,0.2-0.2,0.2c-0.2-0.2-0.2-0.3-0.3-0.5C164.4,35.4,164.5,36,164.7,35.8z M99.9,5c-0.4,0.1-1.5,0-1.8,0
				C98.6,4.8,99.5,5,99.9,5z M133.7,10c0.3-0.5,1.2-0.1,1.9,0.4c0.2,0,0.1-0.1-0.1-0.2c0.4-0.1,0.7,0.4,1,0.5c0.1,0.1,0.1-0.1,0-0.1
				c0.3,0,1.1,0.3,1.2,0.6c0.2,0,0.7,0.3,0.7,0c0.4,0.4,0.9,0.5,1.6,0.8c0.2,0.2,0.1,0.4,0.5,0.6c0.3,0-0.6-0.4,0-0.5
				c0.2,0.1,0.3,0.2,0.3,0.3c0.4,0.2,0.8,0.4,1.3,0.6c0.4,0.2,0.8,0.4,1.1,0.5c0.2,0.1,0.3,0.2,0.2,0.4c0.3-0.1,0.9,0.2,1.4,0.6
				c0.2-0.1,0.7,0.2,1,0.3c0,0.2-0.2,0-0.4-0.1c0.2,0.3,0.7,0.3,1,0.6c0.1,0.1,0.1,0,0-0.1c0.2-0.2,0.1,0.1,0.3,0.2
				c0,0,0.5,0.3,0.5,0.3c0.2,0.1,0.4,0.2,0.5,0.3c0.1,0.1,0.2,0.3,0.2,0.3c0.1,0.1,0.4,0,0.5,0.1c0.2,0.1,0.1,0.2,0.3,0.2
				c0.1,0,0.1,0,0.3,0.1c0.4,0.3,0.6,0.5,0.9,0.6c0,0-0.1-0.2-0.2-0.2c0.5,0.2,0.9,0.7,1.4,1c0.2,0.1,0.4,0.2,0.6,0.3
				c0.1,0,0.2,0.2,0.4,0.3c0.2,0.1,0.1-0.1,0.2,0c0.2,0.1,0.5,0.4,0.7,0.5c-0.1,0.1-0.3,0-0.5-0.2c0.4,0.4-0.3,0.1-0.1,0.4
				c0.1,0,0.1,0,0.2,0.1c0.3,0.2,0-0.2,0.2-0.2c0.1,0,0.2,0.2,0.4,0.3c0,0,0.4,0.1,0.4,0.1c0.1,0,0.3,0.5,0.5,0.2
				c0.2,0.1,0.1,0.2,0.2,0.3c0.2,0.1,0.2,0.1,0.3,0c0.4,0.4,0.6,0.7,1.2,0.9c0.2,0.2,0.3,0.5,0.7,0.8c0.1-0.1,0-0.2-0.1-0.3
				c0.2,0,0.4,0.3,0.8,0.5c0.2,0.1,0.2-0.1,0.4-0.1c0.3,0.3,0.5,0.2,0.7,0.3c0.1,0.1,0.3,0.3,0.5,0.4c0.8,0.5,2.1,1.6,3.1,2.5
				c0.2,0.2,0.7,0.3,0.6,0.6c0.2,0.2,0.2,0,0.4,0.1c1.1,1,1.9,1.6,2.5,2.4c-0.5-0.2-0.7-0.7-1.2-0.9c-0.3,0.1,0.2,0.4,0.5,0.6
				c0.1,0.1,0.2,0.3,0.2,0.3c0.2,0.2,0.4,0.2,0.6,0.3c0.4,0.6,0.9,1.2,1.4,1.3c0.7,0.8,1.5,1.3,1.9,2c0.7,0.3,1.5,1.5,2,2.2
				c0.4,0,0.9,0.9,1.5,1.5c0.4,0.5,1,0.9,1.3,1.3c0.5,0.6,1,1.2,1.4,1.7c0.4,0.5,0.7,1.2,1.2,1.4c0,0.4,0.4,0.5,0.6,0.8
				c0.1,0.2,0.1,0.2,0.2,0.3c0.4,0.5,1,1.2,1.5,1.9c0.3,0.4,0.4,0.7,0.7,1.1c0.2,0.2,0.4,0.3,0.5,0.5c0.2,0.2,0.3,0.5,0.4,0.8
				c0.2,0.3,0.6,0.6,0.7,1c0.1,0.1,0.1,0,0.2,0c0.1,0.3,0.2,0.5,0.5,0.9c0.1,0.4,0,0.7,0.4,1.3c0,0.3-0.6-0.3-0.8,0
				c-0.1,0.2,0.3,0.5,0.5,0.7c0.1,0.1,0.1-0.1,0.3,0c0.3,0.4-0.1,0.4,0.1,0.7c0.2,0.4,0.3,0.2,0.5,0.6c-0.1,0,0,0.2-0.2,0.2
				c0.2,0.4,0.3,0.4,0.5,0.7c-0.1,0.1-0.2,0-0.2,0c0.3,0.4,0.5,0.7,0.5,1c0.1,0.1,0.1,0,0.1,0c0.3,0.3,0.6,1,0.6,1.3
				c0.2,0.2,0.2,0,0.2,0.3c0.2,0.3,0.4,0.5,0.6,0.5c0,0.2-0.1,0.2-0.1,0.4c0.1,0.1,0.2,0.1,0.2,0.3c0.1-0.1,0.1-0.3,0.3-0.3
				c0.1,0.3,0,0.2-0.1,0.2c0.1,0.3,0.2,0.2,0.3,0.5c0.1,0.3-0.2,0.8,0.3,0.8c0.1-0.1-0.1-0.4-0.2-0.3c0-0.2,0.2-0.2,0.2-0.4
				c0.2,0.2,0.3,0.5,0.5,0.9c-0.2,0-0.3-0.6-0.4-0.5c0.1,0.5,0.6,1.3,0.9,1.4c0.1,0.4,0.6,1.1,0.2,1.1c0.1,0.4,0.3,0.3,0.4,0.6
				c0,0.2-0.1,0-0.2-0.2c-0.2,0.1,0.1,0.8-0.3,0.5c0,0.2,0.2,0.7,0.4,0.8c0.1-0.1-0.1-0.4-0.1-0.6c0.2,0.1,0.3-0.3,0.5,0.2
				c0.2,0.5-0.1-0.1-0.2,0.1c0.2,0.4,0.4,0.4,0.3,0.7c0.2,0.3,0.1-0.2,0.2-0.1c0,0.3,0.3,0.8,0.4,1.2c0,0.3-0.3-0.1-0.2,0.4
				c0.1,0.2,0.2,0.3,0.3,0.3c0.1-0.1-0.1-0.3,0-0.4c0.2-0.2,0.2,0.3,0.4,0.5c0.2-0.2-0.1-0.5-0.3-0.8c0.4,0.1,0.4,0.8,0.7,1.3
				c-0.1,0-0.2-0.2-0.3-0.2c0.4,0.7,0.1,0.8,0.1,1.1c0,0.1,0.1,0.1,0.1,0.2c0.1-0.2,0.1-0.6,0.3-0.8c0.1,0.3,0.1,0.5-0.1,0.6
				c0.1,0.4,0.3,0.4,0.4,0.5c0,0.2-0.1,0.3-0.2,0.3c0.2,0.4,0.2,0.1,0.3,0.7c0,0.2,0.1,0.5,0,0.5c0.2,0.4,0.2-0.1,0.4,0.1l-0.1-0.4
				c0.2,0.1,0.3,0.8,0.1,0.8c0.2,0.5,0.2,0.7,0.4,1.2c0-0.3-0.3-1.3,0-1.1c0.1,0.3-0.1,0.3,0,0.6c0,0.1,0.1,0.1,0.1,0.2
				c0.1,0,0.1-0.2,0.2-0.2c-0.1-0.3-0.2-0.3-0.2-0.4c0.1-0.3,0.4,0.7,0.3,0.9c-0.1,0.1-0.2-0.1-0.3,0c0.3,0.4,0.5,1.2,0.3,1.5
				c0.2,0.2,0.2-0.2,0.2-0.3c0.4,0.6,0,1.3,0.5,2c0.2,0.4-0.2,0.2,0.1,0.6c0.1,0.4,0.2,0.2,0.3,0.4c0,0.6,0.2,0.9,0.2,1.4
				c0.1,0.1,0.2,0.1,0.2,0.3c0.1,0.1,0.2,0.1,0.3,0.3c0-0.2,0.1-0.1,0.2,0.1c-0.2,0.1-0.5-0.2-0.4,0.2c0.1,0.3,0.1-0.2,0.2-0.1
				c0.1,0.5,0.3,0.7,0.4,1.1c0.1,0.4,0,0.8,0.1,1.4c0,0.3,0.3-0.1,0.3,0.3c0.1,0.4-0.1,0.1-0.1,0.1c0,0.1,0.1,0.4-0.1,0.4
				c0.2,0.5,0.2,0.1,0.4,0.3c0,0.4,0.1,1,0.3,1.3c-0.1,0.3-0.2,0-0.3-0.1c-0.1,0.2,0.2,0.7,0.3,1.2c-0.2-0.1-0.2,0.1-0.4-0.3
				c-0.1,0.1,0,0.3,0,0.5c0.1,0.3,0.3,0,0.4,0.1c0.1,0.4,0.3,0.3,0.3,0.7c0,0.1,0.1,0.1,0.2,0.1c0.1,0.8,0.3,1.5,0.3,2.2
				c0,0.1,0.1,0.1,0.1,0.1c0,0.5,0.2,0.9,0.2,1.2c0,0-0.1,0-0.1,0c0,0.1,0.1,0.5,0.1,0.6c0,0.1,0.1,0.1,0.1,0.2
				c0.2,0.1,0-0.4,0.2-0.3c0.2,0.5-0.3,0.3,0,1c-0.1,0-0.1-0.1-0.2-0.1c0,0.4,0.3,0.7,0.1,0.9c0,0.1,0.1,0.1,0.2,0.1
				c0,0.7,0.1,1.2,0.2,1.8c-0.1,0-0.1-0.4-0.1-0.4c-0.2,0.2,0.3,1.3,0.2,0.5c0.1,0,0.1,0.6,0.1,0.9c-0.1,0-0.1,0.1-0.2,0.1
				c0,0.1,0.1,0.1,0.1,0c0.2,0.3-0.1,1.2,0.2,1.4c0,0.4-0.2,0.3-0.1,0.7c0.1,0.1,0.1-0.2,0.1-0.4c0.1,0.1,0,0.7,0,0.9
				c0,0.2,0.2-0.2,0.2,0.4c0,0.3-0.1,0.2-0.1,0.3c0,0.4,0.2,0.8,0.2,1.2c0,0.1,0,0.1,0,0.2c0,0.2,0.1,0.2,0.1,0.2c0,0.3,0,0.8,0,1.4
				c0,0.2,0,0.6,0,0.9c0,0.3,0.1,0.6,0,0.9c0,0.1-0.1,0.3-0.1,0.5c0,0,0.1,0.1,0.1,0.1c0,0-0.2,0.9,0,1c0,0.5,0,0.8,0,1.5
				c0,0.1,0,0.5,0,0.5c0,0.2-0.1,0.2-0.1,0.4c0,0.4,0.1,0.3,0,0.6l0.1,0.4c0,0.9-0.1,1.8-0.2,2.7c-0.1,0.9-0.1,1.7-0.1,2.5
				c0,0.1-0.1,0.2-0.2,0.2c0.1,1.2-0.1,2.4-0.2,3.6c-0.1,0.3,0.1,0.1,0,0.5c-0.1-0.1-0.2,0.1-0.3,0.3c0.1,0.1,0.1-0.3,0.3-0.2
				c0,0.3-0.1,0.6-0.2,0.6c0,0.2,0,0.2,0.1,0.3c-0.1,0.8-0.2,1.1-0.4,2.1c-0.1-0.4-0.1-0.4-0.4-0.5c-0.1,0.3,0,0.2,0.1,0.3
				c-0.1,0.3-0.2,0.3-0.3,0.4c-0.1,0.6-0.3,1.1-0.2,1.5c0,0.3-0.1,0.2-0.2,0.3c0,0.1,0.1,0.1,0,0.3c-0.1,0.4-0.2,0.4-0.2,0.8
				c-0.1,0.1-0.2,0.2-0.2,0.6c0.1,0.3,0.3-1,0.2-0.2c0,0.2-0.1,0.4-0.1,0.5c0,0.3,0,0.4,0,0.5c0,0.2-0.1,0.2-0.2,0.5
				c-0.2,0.9-0.5,2.1-0.7,2.6c0,0.1,0,0.1,0.1,0.1c-0.2,0.6-0.5,1.6-0.6,2.1c-0.1,0.2-0.2,0.4-0.2,0.6c-0.1,0.2,0,0.3-0.1,0.4
				c0,0.1-0.1,0.1-0.1,0.2c0,0.1-0.1,0.6-0.2,0.6c-0.1,0.2-0.1,0.4-0.2,0.7c0.1,0,0.1-0.3,0.2-0.5c0.1-0.1,0,0.1-0.1,0.3
				c-0.1,0.3-0.2,0.6-0.3,0.7c0-0.3-0.2,0.3-0.1-0.2c-0.1,0.1,0,0.2-0.2,0.6c0,0.2,0.2-0.3,0.1,0c-0.2,0.5,0-0.1-0.2,0.2
				c-0.1,0.2,0,0.2,0,0.3c0,0.1-0.3,0.6-0.1,0.5c-0.2,0.6-0.4,1.1-0.6,1.6c-0.1-0.1-0.2,0.2-0.1-0.1c-0.2,0.4-0.7,1.6-0.9,2
				c0,0.1,0,0.1,0,0.1c-0.4,0.9-0.9,1.9-1.1,2.5c-0.2,0.5-0.6,1.2-0.5,1.2c-0.2,0.3-0.3,0.6-0.4,0.9c-0.1,0.2-0.3,0.5-0.3,0.6
				c-0.1,0.1-0.1,0.3-0.1,0.3c-0.2,0.4-0.5,1-0.7,1.4c-0.2,0.4-0.6,1-0.9,1.6c-0.2,0.4-0.3,0.6-0.5,1c-0.2,0.4-0.5,0.8-0.7,1.2
				c0-0.1-0.1,0.1-0.1,0.1c0.2-0.4,0.1-0.3,0.3-0.6c-0.1,0.1-0.2,0.3-0.4,0.6c0.1-0.3,0.1-0.4-0.2,0c0,0.1-0.1,0.2-0.2,0.3
				c-0.1,0.2-0.4,0.7-0.7,1.1c-0.2,0.4-0.3,0.6-0.6,0.9c-0.1,0.2-0.8,1.3-1.2,1.9c-0.1,0.2-0.2,0.3-0.3,0.5
				c-0.4,0.6-0.8,1.1-1.2,1.7c0-0.1-0.2,0.2-0.2,0.3c-0.4,0.5-0.4,0.6-0.8,1c0.1-0.2,0,0-0.2,0.3c0.3-0.4-0.2,0.2-0.2,0.3
				c0.1-0.2,0.1-0.2,0.2-0.3c-0.1,0.1-0.2,0.3-0.3,0.4c0.1-0.2,0.1-0.2,0.2-0.3c0,0-0.1,0.1-0.1,0.2c0-0.1,0.1-0.1,0.1-0.2
				c0,0,0.1-0.2,0.1-0.2c0.1-0.1,0,0,0.1-0.1c0-0.1,0.1-0.1,0.1-0.2c0.1-0.2,0.2-0.3,0.3-0.4c0.2-0.4,0.3-0.4,0.4-0.7
				c0.1-0.1,0.1-0.1,0.1-0.1c0.4-0.6,0.8-1.2,1.2-1.8l0.5-0.8c0-0.1-0.2,0.3-0.3,0.3c0.4-0.7-0.1,0,0.1-0.3l0.2-0.4
				c0,0-0.1,0.2-0.1,0.1c0.3-0.6,0.4-0.7,0.6-1.2c0,0,0.1-0.2,0.3-0.4c0.2-0.4,0,0,0.1-0.2l0.2-0.4l0,0c0.2-0.4,0.4-0.7,0.4-0.9
				c0,0-0.3,0.7-0.3,0.5l1.6-3.3c0.1-0.1,0.1-0.2,0.1-0.3c0,0-0.1,0.2-0.1,0.1c0.2-0.5,0.2-0.5,0.4-1.1c0-0.1-0.1,0.2-0.2,0.4
				c-0.2,0.3,0.1-0.2,0.1-0.3c0.3-0.8,0.8-2.1,1-2.3c0.1-0.2,0.1-0.4,0.3-0.9c0,0-0.1,0.3-0.1,0.4c0,0,0.1-0.1,0.1-0.1
				c0.1-0.3,0.2-0.5,0.1-0.6c0.3-0.8,0.6-1.4,0.8-2c-0.2,0.6,0.2-0.4,0.2-0.6c0.2-0.7,0.5-1.5,0.7-2.2c0.5-1.7,1.2-3.8,1.5-5
				c0.1-0.2,0.1,0,0.1,0c0-0.1,0.1-0.2,0.1-0.2c0.1-0.3,0-0.3,0.1-0.6c0-0.2,0.2-0.5,0.2-0.7c0.1-0.2,0-0.3,0.1-0.6
				c0.1-0.3,0.1-0.4,0.2-0.3c0-0.3-0.1-0.3,0.1-0.8c0,0,0,0.2,0,0.3c0.1-0.1,0.1-0.5,0.2-0.8c0,0,0.1-0.2,0.1-0.2
				c0.2-0.8,0.3-1.8,0.5-2.3c0-0.1,0-0.2-0.1-0.3c0.2-0.4,0.3-1.3,0.4-1.9l0.1,0c0-0.3,0.1-0.6,0-0.7c0.1-0.4,0.1,0.2,0.1,0.2
				c0.1-0.4,0-0.6,0-0.8c0.1-0.5,0.2-1.2,0.2-1.7c0-0.2,0.1-0.3,0.2-0.5c0-0.9,0.1-1.8,0.2-2.7c0-0.5,0.1-0.9,0.2-1.4
				c0-0.5,0.1-1,0.2-1.4c0-0.3,0-0.6-0.1-0.8c0.1-0.5,0.2-0.8,0.2-1.4l0.2,0c0-0.4-0.2-1.2,0-1.6c0.1,0.2,0,0.6,0,0.8
				c0,0.3,0.2,0.3,0.1,0.7c0.1-0.1,0.1-0.2,0.1-0.5c0.1,0.4,0.3,0.2,0.3,0.4c0.2,0.5,0,1.1,0,1.7c0,0.2-0.1,0.5-0.2,0.5
				c0,0.2,0,0.3,0,0.5c0.1,0,0.1-0.2,0.1-0.5c0.1,0.3-0.1,1.1-0.1,1.4c-0.1-0.2-0.1-0.1-0.2,0.1c0,0.3,0.1,0.4,0,0.7
				c0.1,0,0.1,0,0.1,0.1c0.1,0,0.1-1,0.2-0.8c-0.1,0.5-0.1,1.1-0.2,1.4c0,0.5,0.1,0,0.2,0.3c0.1-0.4,0-0.7,0.1-1
				c0.1,0,0.1,0.1,0.1,0.3c0.1-0.1,0.1-0.2,0.2-0.3c0-0.4-0.1,0.2-0.2,0.1c0.1-0.3,0-0.2-0.1-0.3c0-0.4,0.1-0.4,0.1-0.7
				c0.1,0,0,0.3,0,0.5c0.2-0.2,0-0.6,0-0.8c0-0.4,0.2-0.6,0.3-0.8c0-0.2-0.2-0.1-0.1-0.5c0.1-0.2,0.2-0.2,0.3-0.3
				c0-0.2-0.1-0.2-0.1-0.4c0.1-1.1,0.2-2.6,0.3-4.1c0-0.3-0.1-0.1-0.1-0.4c-0.1,0.1-0.1,0.2-0.1,0.5c-0.1-0.3-0.3,0.1-0.4,0.2l0-0.2
				l0-0.2c0.1,0.2,0.3,0.1,0.3-0.3c-0.1-0.1-0.1,0.4-0.2,0.2c0.2-0.5,0.1-0.8,0-1.2c-0.1,0.2,0,0.5,0,0.7c0,0.5-0.2,0.7-0.2,1.1
				c-0.1-0.2-0.2-0.4-0.3,0c0-0.4-0.1-0.8-0.2-1.1c0-0.3,0.1-0.2,0.1-0.5c0-0.3,0-0.6-0.1-1c0-0.2,0.1-0.2,0-0.4
				c0-0.4-0.1-0.7-0.1-1.1c0-0.4,0-0.9,0-1.5c0-0.6-0.1-1.1-0.1-1.5c0-0.2,0.1-0.6-0.1-0.7c-0.1-0.3,0.1-0.2,0.1-0.5
				c0-0.2,0-0.2-0.1-0.2c-0.1-0.4,0.2-0.2,0.1-0.5c0-0.4-0.2-0.7-0.1-0.9c0-0.1-0.1-0.1-0.2-0.1c0.1-0.4,0.1-0.9,0-1.5
				c0-0.1-0.1-0.2-0.2-0.2c0-0.7-0.1-1.8-0.3-3c-0.2-1.2-0.3-2.6-0.6-3.7c-0.1-0.3-0.2-0.6-0.3-0.9c-0.2-0.8-0.2-1.5-0.4-2.1
				c0.1,0.6-0.1,0.4-0.2-0.2c0.1,0.4-0.5-2.4-0.7-3.3c-0.1-0.2,0-0.2,0-0.4c-0.1-0.2-0.2-0.5-0.3-0.8c-0.1-0.2,0-0.5-0.1-0.6
				c-0.1-0.3-0.3-0.4-0.4-1c0-0.1,0-0.4,0-0.4c-0.1-0.2-0.2-0.3-0.3-0.5c0-0.1,0-0.2,0-0.4c-0.1-0.3-0.3-0.6-0.4-0.9
				c-0.1-0.3-0.4-1.5-0.6-1.9c-0.1-0.1-0.2-0.1-0.2-0.3c0.1-0.1,0.1,0.1,0.2,0.1c-0.1-0.2-0.1-0.2-0.2-0.4c-0.1,0-0.1,0.1-0.1,0.1
				c-0.2,0-0.1-0.3,0-0.3c-0.2-0.2-0.2-0.4-0.3-0.6c0-0.1-0.3-0.6-0.4-0.7c-0.1-0.2-0.1-0.4-0.2-0.7c-0.3-0.7-0.6-1.5-0.8-2.1
				c-0.1-0.3-0.4-0.6-0.5-0.8c-0.1-0.2,0-0.2-0.1-0.3c-0.1-0.3-0.3-0.6-0.4-0.9c-0.1-0.2-0.1-0.4-0.1-0.6c-0.1-0.2-0.1-0.5-0.2-0.7
				c0-0.1-0.2-0.2-0.3-0.3c-0.1-0.2,0-0.2-0.1-0.3c-0.1-0.2-0.2-0.2-0.2-0.4c-0.1-0.2-0.1-0.5-0.2-0.7c-0.2-0.3-0.8-1-0.8-1.7
				c-0.2,0-0.6-0.8-0.9-1.4c-0.1-0.1-0.1-0.4-0.2-0.6c-0.3-0.6-0.6-1.1-0.9-1.6c-0.3-0.5-0.6-1-0.8-1.5c-0.1-0.2,0-0.5-0.3-0.6
				c-0.1,0.1,0.1,0.2,0.1,0.3c-0.2-0.2-0.8-1.1-0.5-1.2c-0.2,0-0.2-0.2-0.5-0.5c-0.1-0.2-0.5-0.3-0.7-0.8c0.1-0.1,0.2,0.1,0.3,0.2
				c0-0.1,0.1-0.4,0.2,0c0.1-0.2-0.2-0.2-0.2-0.4c0.1,0,0.2,0,0.3,0c-0.1-0.3-0.2-0.2-0.4-0.5c0.3,0,0.1-0.5-0.1-0.6
				c-0.1,0.2,0.1,0.7-0.1,0.9c-0.2-0.1-0.4-0.4-0.5-0.4c0-0.2,0.1-0.3,0.1-0.5c-0.2-0.3-0.4-0.1-0.2,0.2c-0.4-0.2-0.3-0.7-0.1-0.9
				c-0.2-0.1-0.5-0.5-0.7-0.3c-0.1-0.1-0.2-0.3-0.3-0.3c0-0.3-0.3-0.7-0.2-0.9c0.2,0.2,0.3,0.5,0.1,0.5l0.3,0.5
				c0.3-0.1-0.2-0.5,0-0.6c0.3,0.3,0.2,0.2,0.3,0.5c0.2-0.1-0.1-0.5,0-0.7c-0.2-0.3-0.5-0.3-0.5-0.6c0.3-0.2,0.9,0.4,1,0.2
				c0.3,0.2,0.3,0.6,0.6,0.9c-0.2-0.1-0.1,0.1-0.2,0.1c0.3,0.5,0.5,0,0.8,0.5c0.2,0.3,0,0.1-0.1,0.2c0.1,0.2,0.2,0.1,0.3,0.2
				c0.3,0.4,0.1,0.5,0.4,0.9c0.3,0.3,0-0.3,0.2-0.3c-0.1,0.1,0.3,0.5,0.2,0.6c0.2,0.2,0.1-0.2,0.1-0.3c0.2,0.2,0.4,0.8,0.7,1
				c0.1-0.3-0.3-0.3-0.4-0.6c0.1-0.1-0.1-0.5,0.2-0.4c-0.2-0.5-0.4-0.3-0.6-0.8c-0.2-0.4,0.1-0.2-0.2-0.5c-0.2-0.2-0.3-0.3-0.4-0.4
				c0-0.2-0.1-0.5-0.2-0.8c-0.3-0.3,0.2,0.3-0.1,0.2c-0.4-0.3-0.7-1.3-1-1.3c0-0.2-0.1-0.4-0.3-0.8c0.4,0,0.2,0.6,0.6,0.8
				c0-0.5-0.2-1.1-0.2-1.6c-0.4-0.2-0.1,0.5,0,0.7c-0.2,0.1-0.5-0.8-0.7-0.4c-0.1-0.2-0.1-0.3-0.1-0.4c-0.3-0.1-0.5-0.6-0.8-1
				c0.1-0.1,0.3,0.4,0.4,0.3c-0.1-0.3-0.2-0.5-0.3-0.8c-0.2-0.2-0.3-0.1-0.5,0c-0.1-0.3-0.6-0.7-0.5-0.8c0.3-0.2,0.2,0.5,0.5,0.5
				c0.1-0.5-0.5-0.5-0.6-0.9c-0.1,0.1,0,0.2-0.2,0.3l-0.6-0.9c-0.1-0.4,0.5,0.7,0.6,0.5c0-0.3-0.6-0.6-0.8-1
				c0.2,0.7-0.5-0.5-0.8-0.8c-0.1-0.3,0.4,0.4,0.6,0.6c0.1-0.3-0.5-0.8-0.7-0.9c0-0.4-0.5-1.1-0.9-1.3c0,0.2,0.5,0.7,0.7,1
				c-0.1,0.1-0.3-0.3-0.4-0.4c-0.3-0.3-0.5-0.8-0.8-0.8c-0.3-0.7-0.7-1-1.2-1.7c-0.1-0.1-0.2,0-0.3-0.1c-0.2-0.2-0.2-0.4,0-0.4
				c-0.7-0.5-0.7-1.1-1.3-1.5c0-0.3,0.1,0,0.3-0.1c-0.1-0.1-0.1-0.2-0.2-0.3c-0.1-0.1-0.3,0-0.2,0.1c-0.4-0.1-0.7-0.5-1-0.8
				c-0.1,0.1-0.2,0.1-0.1,0.2c-0.3-0.1-0.4-0.5-0.8-0.7c0.3,0.1,0.3-0.2,0.2-0.5c0.2-0.1,0.1,0.2,0.3,0.3c0.1-0.1,0.1-0.2-0.1-0.4
				c-0.4-0.3-0.2,0.3-0.5,0.2c-0.3-0.5-0.3-0.5-0.8-1.1l0.2-0.1c-0.4-0.4-0.7-0.4-1.2-0.9c0.3,0,0-0.3,0-0.3c0-0.1,0.3-0.2,0-0.4
				c-0.4-0.2,0.2,0.4-0.2,0.5c-0.4-0.3-0.1-0.4-0.4-0.7c-0.1-0.1-0.1,0.1,0,0.2c-0.3,0-0.3-0.4-0.5-0.6c-0.2-0.2-0.6-0.4-0.8-0.6
				c-0.2-0.2-0.3-0.5-0.6-0.6c0.1-0.1,0.2,0,0.2-0.1c-0.2-0.3-0.5-0.2-0.6-0.4c0.1-0.1,0.3,0.2,0.4,0.1c-0.3-0.4-0.4-0.1-0.6-0.4
				c-0.1,0.2,0.3,0.5,0.1,0.6c0-0.1-0.3-0.2-0.4-0.3c0,0,0.2,0,0.2,0c-0.1-0.3-0.2-0.6-0.7-1c-0.3-0.2,0.2,0.4-0.2,0.2
				c-0.2-0.2-0.4-0.5-0.6-0.7l0.1-0.2c-0.1-0.2-0.2-0.2-0.4-0.3c-0.3-0.3-0.2-0.5-0.6-0.4c0.1,0.2,0.4,0.7-0.1,0.3
				c0,0.3,0.7,0.6,0.9,0.9c-0.1,0.2-0.5-0.3-0.7-0.4c-0.3-0.2-0.6-0.5-0.8-0.7l0.2-0.3c-0.4-0.3-0.6-0.3-0.6,0l-0.6-0.4
				c0.1,0,0.2,0,0.3,0c-0.5-0.3-0.5-0.6-1-0.9c0.1,0,0.1,0,0.2,0c-0.7-0.6-1.1-0.9-1.7-1.5c-0.2,0.1-0.6,0-1-0.4
				c-0.1,0.2,0.6,0.3,0.7,0.7c-0.3,0-0.7-0.5-1.1-0.7c0-0.1,0.2,0,0.3,0c-0.3-0.3,0.2-0.2,0-0.4c-0.4-0.4,0,0.2-0.3,0
				c-0.5-0.3,0-0.4-0.5-0.7c-0.2-0.1,0,0.3-0.3,0.2c-0.1-0.3-0.9-0.5-0.5-0.5c-0.6-0.2-1-0.6-1.4-0.9c-0.3,0.2,0.3,0.4,0.6,0.6
				c-0.2,0.2-0.4-0.3-0.7-0.4c-0.3-0.1-0.4-0.1-0.7-0.3c0-0.3,0.3-0.1,0.5,0.1c0.1-0.1-0.2-0.3-0.4-0.4c0.2-0.1,0.3-0.1,0.1-0.4
				c-0.2-0.1-0.1,0.3-0.4,0.2c-0.2,0.1,0.3,0.5-0.1,0.4c-0.3-0.2-0.1-0.1,0-0.2c-0.6-0.3-0.7-0.4-1.2-0.8c0.2-0.3,0.4,0.4,0.6,0.2
				c-0.1-0.3-0.3-0.2-0.5-0.5c-0.2-0.1-0.1,0.2-0.1,0.2c-0.2,0.1-0.3-0.3-0.5,0c-0.3-0.3-0.7-0.3-0.9-0.6c-0.4,0.1-1.2-0.6-2-1
				c-0.4-0.2-0.5-0.2-0.8-0.5c-0.1-0.1-0.1,0.1-0.3,0c-0.6-0.4-1.2-0.7-1.7-0.9c-0.5-0.2-1-0.5-1.5-0.9c-0.1,0-0.1,0.1-0.3,0
				c-0.3-0.1-0.2-0.2-0.5-0.3c0-0.3,0.3-0.1,0.5-0.1c0.1,0.2,0.5,0.6,0.9,0.6c0-0.2-0.4-0.2-0.6-0.5c0-0.1,0-0.2,0-0.2
				c-0.2-0.2-0.4-0.2-0.6-0.4c-0.2,0.1,0.3,0.2,0.1,0.4c-0.2,0-0.9-0.2-0.5,0.1c-0.1,0-1-0.3-0.8-0.5c-0.6,0-1.4-0.6-2.3-1
				c-1-0.5-2.3-0.9-3.1-1.2c-0.3-0.1-0.2-0.2-0.4-0.3c-0.3,0-0.5-0.2-0.5-0.2c-0.2,0-0.3,0.1-0.6-0.1c-0.1-0.3,0.2,0,0.4,0
				c0.1,0,0.2-0.1,0.3-0.1c0.2,0,0.5,0.4,0.6,0.2c0-0.1-0.2,0-0.3-0.1c0,0,0.1-0.3-0.4-0.4c-0.1,0.1,0.5,0.2,0.3,0.3
				c-0.6-0.1-1.1-0.6-1.6-0.8c-0.1,0.2,0.7,0.3,0.8,0.5c0,0.3-0.3,0.1-0.4,0.3c-1.2-0.3-2-0.8-2.8-1.2c-0.7-0.1-1.5-0.3-2.2-0.6
				c-0.2,0.2,0,0.3,0.3,0.5c-0.1,0.1-0.5-0.1-0.6,0c-0.1,0.2,0.3,0.1,0.5,0.1c0.4,0.1,0.7,0.3,1.2,0.5c0.1,0,0.1-0.1,0.3,0
				c0.4,0.1,0.5,0.3,0.7,0.4c0.3,0.1-0.1-0.1,0.2-0.1c0.7,0.4,1.6,0.5,2.3,0.9c-0.4,0.1,0.5,0.4,0.5,0.6c0.3,0.1,0-0.4,0.4-0.1
				c0-0.1-0.2-0.1-0.3-0.2c-0.3-0.2,0.2,0,0.4,0.1c0.2,0.2,0.3,0.4,0.7,0.5c0.2-0.1-0.2-0.2-0.4-0.3c0.1-0.2,0.3,0.1,0.6,0.2
				c0.5,0.2,1.2,0.4,1.8,0.7c0,0.2-0.2,0.1-0.4,0c0.1,0.4,0.6,0.2,0.8,0.2c0.9,0.4,0.8,0.7,1.6,1.1c0.2-0.2-0.5-0.3-0.7-0.5
				c1,0.1,1.9,0.9,2.6,1.2c0.1,0,0.3,0,0.3,0c0.2,0.1-0.1,0.1-0.1,0.1c0.2,0.1,0.5,0.1,0.7,0.2c0.4,0.2,0.4,0.5,0.7,0.6
				c0.1,0.1,0.1-0.1,0.2-0.1c0.9,0.6,1.9,0.8,2.5,1.4c0.1,0.1,0.1,0,0-0.1c0.4,0.1,1.3,0.7,1.5,1c0.2,0.1,0.5,0.2,0.7,0.2
				c0.4,0.3,0.9,0.6,1.3,0.9c0.4,0.4,0.9,0.8,1.3,1.1c0,0.4,0.2,0.6,0,0.8c0.9,0.5,1.2,0.8,2,1.4c0.1,0,0.2,0,0.3,0
				c0.2,0.1,0.4,0.3,0.4,0.4c0.2,0.1,0-0.2-0.1-0.3c-0.4-0.4-0.7-0.2-0.9-0.6c0.3,0,0.6,0.2,1,0.5c0-0.1,0-0.2-0.1-0.3
				c0.1-0.1,0.2,0.1,0.2,0.1c0.1,0.1,0.2,0.2,0,0.4c0.1,0.1,0.3,0.2,0.4,0.3c0.1,0.1,0.2,0.3,0.2,0.3c0.2,0.1,0.3,0,0.6,0.2
				c-0.1,0.2,0.4,0.5,0.3,0.7c0.3,0.1,0-0.3,0.3-0.2c0.3,0.2,0.4,0.4,0.2,0.4c0.4,0,0.6,0.7,0.8,0.3c0.1-0.3-0.6-0.2-0.5-0.4
				c0.1-0.3,0.5,0.2,0.6,0.3c0.1,0.1,0.3,0.1,0.4,0.1c0.5,0.3,1.3,0.9,1.4,1.3c0.3,0.1,0.6,0.6,1,0.8c0.2,0.2,0.5,0.2,0.7,0.3
				c-0.3-0.5-0.8-0.5-1.1-0.9c0.3-0.1,0.7,0.3,1,0.5c0.3,0.2,0.5,0.7,1,1c-0.1,0.2-0.3-0.1-0.5,0c0.3,0.2,0.6,0.2,0.9,0.4
				c0,0.3,0.3,0.4,0.7,0.8c0.2-0.1-0.5-0.4-0.2-0.5c0.3,0.2,0.6,0.7,0.8,0.5c0.1,0.3,0.4,0.6,0.4,0.8c0.2,0.1,0.4,0.3,0.5,0
				c0.3,0.2,0.2,0.5,0.4,0.3c0.3,0.3,0.2,0.5,0.3,0.7c0.3,0.2-0.1-0.3,0.2-0.3c0.4,0.7,1.1,1,1.6,1.6c0.1,0.1,0.2,0,0.4,0.1
				c-0.4,0,0.1,0.3,0,0.5c0.2,0,0.8,0.5,0.8,0.3c0.3-0.1,0.1,0.2,0.2,0.3c0.3,0.2,0-0.3,0.3-0.1c0.7,0.9,1.5,1.6,2.2,2.2
				c0.1,0.1,0.1,0.2,0.2,0.3c0.2,0.2,0.5,0.3,0.7,0.6c0.1,0.1,0.2,0.3,0.2,0.4c0.3,0.3,0.7,0.7,1,1c0.9,0.9,1.5,1.8,1.5,2.6
				c-0.2,0.1-0.4,0.3-0.2,0.6c-0.1,0.1-0.3-0.1-0.4-0.3c0,0.3-0.6,0.1-0.2,0.6c-0.3-0.3-0.5-0.1-0.7-0.2c-0.1,0-0.3-0.4-0.3-0.2
				c-0.3-0.5-0.7-1-1.1-1.5c-0.4-0.5-0.8-1-1.2-1.4c-0.1-0.2-0.1-0.4-0.3-0.5c-0.2-0.2-0.5-0.4-0.7-0.6c-0.1-0.2-0.1-0.2-0.3-0.4
				c-0.3-0.3-0.6-0.3-0.6-0.7c-0.1-0.1-0.2,0-0.3-0.1c-0.2-0.2-0.5-0.4-0.6-0.7c-0.1-0.1-0.1-0.3-0.1-0.3c-0.1-0.1-0.2-0.1-0.3-0.2
				c-0.2-0.2-0.3-0.5-0.5-0.6c-0.2-0.1-0.3-0.1-0.4-0.2c-0.3-0.2-0.5-0.5-0.8-0.9c-0.1-0.2-0.2-0.1-0.3-0.1
				c-0.4-0.6-1.1-1.2-1.9-1.8c-0.1-0.2,0.4-0.1,0.1-0.4c-0.3-0.2-0.1,0.3-0.3,0.2c-0.7-0.6-0.9-0.8-1.6-1.4c0.1,0,0.2,0,0.4,0.1
				c-0.1-0.5-0.6-0.2-0.6-0.2c-0.4-0.3,0.2,0,0-0.3c-0.2-0.2-0.2-0.1-0.3,0l-0.6-0.5c-0.1-0.2,0.1-0.1,0.2-0.2
				c-0.1-0.1-0.2-0.2-0.3-0.2c-0.2-0.1,0.1,0.5-0.4,0.1c-0.4-0.3,0.1-0.1,0.1-0.3c-0.3-0.2-0.1-0.2-0.4-0.3
				c-0.2-0.2-0.2,0.2-0.4,0.2l-0.6-0.5c0.1,0,0.2,0,0.3-0.1c-0.2,0-0.5-0.4-0.5-0.1c-0.5-0.4-0.7-0.7-0.7-0.9
				c-0.2-0.2-0.6-0.1-0.4-0.4c-0.3-0.2,0,0.4-0.4-0.1c0,0.1,0,0.2,0.1,0.3c-0.1,0-1-0.4-0.6-0.6c-0.3-0.2-0.4,0-0.7-0.2l0.1-0.2
				c-0.1,0.1-0.4-0.1-0.5-0.1c-0.3-0.2-0.2-0.4-0.3-0.6c-0.2,0.2-0.8-0.4-1-0.4c0,0,0.1,0.2,0.2,0.3c-0.6-0.2-1.1-0.9-1.8-1.3
				c0-0.3,0-0.5-0.3-1c-0.3-0.2-0.3,0-0.6-0.2c0.1,0.4-0.5,0.1-0.1,0.4c-0.2,0-0.7-0.5-0.7,0c-1.2-0.6-2.6-1.7-3.7-2.3
				c0.2-0.2,0.7,0.3,1.1,0.5c0.4,0.2,0.7,0.5,1,0.5c-0.1-0.2-0.4-0.4-0.4-0.6c-0.4-0.3-0.4,0.1-0.7-0.1l0.1-0.1
				c-0.5-0.3-0.7-0.5-0.9-0.8c-0.1-0.1-0.1,0.1-0.3,0l-0.7-0.4c-0.2-0.2,0-0.2-0.1-0.3c-0.4-0.2,0,0.1-0.3,0.1
				c-0.3-0.1-0.6-0.4-0.6-0.1c-0.5-0.5-1.5-0.8-2-1.2c0.4,0,1.1,0.6,1.7,0.8c0.2,0,0.4,0,0.5-0.1c-0.3-0.2-0.4-0.2-0.5,0
				c-0.3-0.3-0.7-0.3-1.2-0.7c0.2,0,0.1-0.1,0.1-0.2c-0.5-0.2-0.9-0.4-1.4-0.6c-0.5-0.2-1-0.4-1.6-0.7c-0.2-0.2,0.3-0.1,0-0.3
				c-0.5-0.2,0,0.4-0.6,0c-0.1-0.3,0.3-0.2,0.6-0.2c0-0.3-0.6-0.4-0.6-0.1c-0.2-0.1-0.4-0.1-0.2,0c-1-0.5-2.3-1-3.6-1.6
				c-1.3-0.6-2.6-1-3.6-1.4c-0.1,0-0.1,0,0,0.1c-0.3-0.1-0.7-0.2-1.2-0.4c0-0.2,0.4,0.1,0.2-0.2c-0.2-0.3-0.4-0.2-0.5-0.3
				c-0.3-0.2,0.4,0.1,0.6,0.1c-0.4-0.2-0.7-0.5-1.1-0.7c-0.2,0.2-0.7,0.2-1.1,0.3c-0.3-0.1-0.5-0.2-0.5-0.4c-0.6,0-1.1-0.4-2.2-0.7
				c-0.1-0.1-0.1-0.2,0-0.3c-0.2-0.1-0.2,0-0.3,0.1c-0.5-0.2-1.1-0.3-1.8-0.5c-0.5-0.1-1-0.3-1.4-0.5c-0.5-0.2-0.9-0.3-1.3-0.4
				c-0.4-0.1-0.8-0.1-1-0.3c-0.2,0-0.2,0.1-0.4,0c-0.3-0.1-0.4-0.2-0.5-0.3c-0.9,0-2.1-0.4-3.6-0.6c-0.3-0.2,0.2-0.1,0.2-0.3
				c-0.6-0.1-0.5,0.3-1.2,0.1c0.1-0.1,0.3-0.1,0.3-0.3c-0.4-0.1-0.5,0.2-0.8-0.1c0.1-0.1,0.5,0.1,0.6-0.1c-0.2-0.2-0.6,0.1-1.2-0.1
				c0-0.2,0.2-0.2,0.5-0.1c-0.2-0.2-0.4,0-0.7,0c0-0.1-0.5-0.1-0.6-0.2c-0.3,0.1-0.8,0.3-1.1,0.2c0.1-0.1,0.1-0.2,0.3-0.3
				c0.2,0,0.2,0.1,0.5,0.1c0.1-0.3-0.6-0.2-0.9-0.2c0-0.2,0.3-0.1,0.3-0.3c-0.2,0-0.3,0.1-0.5,0.2c-0.4,0-0.4-0.2-0.6-0.3
				c0.6,0.1,1.9,0,2.3,0.4c0.3,0-0.1-0.1,0.1-0.2c0.5,0.1,1.2,0.1,1.5,0.3c0.1,0,0.1-0.1,0.1-0.1c0.7,0.1,1.1,0.4,1.7,0.2
				c0.3,0.2,1.5,0.3,2,0.3c0.1,0.2,0.6,0.3,1,0.4c0.1-0.2-0.4-0.3-0.6-0.5c0.2-0.2,0.2,0.1,0.6,0.1c0.3,0.1,0.1-0.2,0.2-0.3
				c-0.7-0.2-1-0.1-1.3,0c-1.5-0.3-2.3-0.4-3.4-0.7c0.3,0,0.3-0.3,0.7-0.3c0-0.1-0.6-0.1-0.7-0.2c-0.1,0.1,0,0.2,0.2,0.2
				c-0.1,0.2-0.6,0-1,0c0-0.1,0.1-0.2-0.1-0.3c-0.4-0.1-0.1,0.3-0.6,0.1c0.2-0.2,0.2-0.1-0.1-0.3c-0.2,0-0.1,0.1,0.1,0.1
				c0,0.1-0.4,0-0.4,0.1c-0.3-0.1-0.5-0.2-0.3-0.4c-0.5-0.1-0.5,0.1-1.1,0c-0.5,0-0.3-0.3-0.8-0.3c-0.3,0-0.7,0.1-0.5,0.3
				c-0.7-0.1-1,0-1,0.2c-0.3,0-0.3-0.1-0.6-0.1c0-0.1,0.2-0.1,0.4-0.1c0-0.2-0.2-0.2-0.4-0.3c-0.5,0.1-0.4,0.1-0.8-0.1
				c-0.1-0.2,0.4,0,0.3-0.2c0-0.1-0.3,0-0.3,0.1c-0.4,0-0.6,0.1-1.1,0c-0.1,0.1,0,0.2,0.1,0.3c0.2-0.1,0.5,0,0.8,0
				c-0.1,0.3,0.6,0.2,0.5,0.5c-0.7-0.1-1.6-0.1-2.5-0.2c-0.9,0-1.8-0.1-2.5-0.1c0-0.3,0.3,0,0.5,0c0.5,0,1.1,0,1.8,0.1
				c0.6,0,1.3,0.1,1.8,0.1c-0.3-0.1-0.9-0.2-1-0.4c-0.4-0.1-0.2,0.2-0.6,0.1c-0.3,0-0.2-0.1-0.3-0.1c-0.3-0.1-0.3,0.1-0.4,0.1
				c-0.1,0-0.2-0.1-0.2-0.1c-0.2,0-0.2,0-0.2,0c-0.5,0-0.9-0.2-1.6-0.1c-0.2,0-0.2-0.1-0.2-0.1c-0.4,0,0.1,0.1,0,0.2
				c-0.3,0-0.3-0.1-0.5-0.2c-0.3,0-0.1,0.2-0.1,0.3c-0.9,0-1.8,0.1-2.6,0.1c-0.1,0-0.2-0.1-0.2-0.1c-0.1,0-0.5,0.1-0.7,0.1
				c-0.2,0-0.6,0-0.7,0.1c-0.1,0-0.3,0-0.4-0.1c-0.6,0.2-2,0.1-2.9,0.2c-0.1-0.2,0.3-0.1,0.4-0.2c0.5,0,0.7,0,1.2-0.1
				c0.2,0,0.1-0.2,0.5-0.2c-0.4-0.2-0.7,0.1-1.1,0.2c-0.1-0.1-0.8,0-0.7-0.2c-0.2,0.1,0.1,0.2-0.2,0.3c-0.3,0.1-0.3-0.1-0.6,0
				c-0.1,0.2,0.3,0.1,0.5,0.1c-0.2,0.1-0.8,0.2-1.2,0.2C90,7.9,89.6,8,89.4,8C89.2,8,89,7.9,89,7.9c-0.1,0-0.2,0.1-0.2,0.1
				c-0.3,0.1-0.5-0.1-0.7,0.1c-0.2,0-0.2,0-0.2-0.1c-0.3,0-0.4,0.1-0.7,0.2c0-0.1,0.2-0.1,0.5-0.1C87.5,8,87.2,8,87.1,8
				c-0.3,0-0.6,0.1-0.5,0.2c-0.1,0-0.7-0.1-0.6,0.1c0.1,0.1,0.5-0.1,0.8-0.1c-0.1,0.1-0.4,0.1-0.6,0.2c0.1,0.1,0.6,0,0.7,0.2
				c0.5-0.1,0.6-0.1,1,0c0,0.1-0.5-0.1-0.6,0.1c0,0.1,0.2,0,0.2,0C88,8.7,87.1,9,88,8.9c0,0.2-1,0-1.1,0.2c0.4,0,0.7,0.1,1.3,0
				c0.3-0.1-0.2-0.1,0-0.2c0.3,0,0.3,0.2,0.5,0.3c0.3,0,0.5-0.1,0.7-0.1c-0.4,0.3-1.2,0.2-2,0.3c0-0.1,0.4-0.1,0.2-0.2
				c-0.5,0-0.2,0.2-0.7,0.2c0,0.1,0,0.1,0.1,0.1c-0.4,0.1-0.9,0.2-0.9,0.5c-0.4,0.1-0.4,0-0.6,0c-0.5,0-0.7,0.1-1.2,0.2
				c0-0.1,0.1-0.2,0.3-0.2c-0.4-0.2-1.2,0.2-1.3-0.1c-0.5,0.1,0.1,0.3,0.3,0.3c0,0.1-0.4,0.1-0.6,0.1c0.3-0.2-0.2-0.2-0.3-0.3
				c-0.6,0.2-0.8,0.4-1.6,0.5c-0.3,0.1-0.2-0.1-0.4-0.1c-0.1,0-0.1,0.1-0.2,0.1c-0.2,0.1,0.4,0.1-0.1,0.2c-0.2,0.1-0.2,0-0.3-0.1
				c-0.3,0.1-0.6,0.2-1.1,0.3c-0.3,0-0.3-0.1-0.8,0.1c0,0,0.2,0,0.4,0c-0.2,0.1-0.6,0.2-1,0.2c-0.4,0.1-0.9,0.2-1.3,0.3
				c-0.2,0-0.1-0.2-0.5-0.1c-0.2,0.1,0.1,0,0,0.1c-0.7,0.1-1.3,0.3-1.8,0.4c0-0.1-0.2-0.2-0.6,0c0.1,0,0.3,0,0.3,0.1
				c-0.2,0.1-0.2,0-0.2,0c-0.2,0-0.5,0.2-0.8,0.2c0.4-0.2,0.7-0.2,1.4-0.4c0.3-0.1,0.2-0.2,0.6-0.2c-0.3,0.2,0.8-0.1,1.1-0.1
				l0.3-0.2c0.3,0,0.3,0.1,0.5,0.1c0.3-0.2,0.4,0,0.9-0.2c0.1-0.3-0.7,0-0.4-0.3c0.3,0,0.6,0,0.6,0.2c0.5-0.1,0.5-0.2,0.2-0.2
				c0.1-0.1,0.3-0.1,0.2,0c0.4-0.1,0.6,0,0.8-0.1c0.2,0,0.1-0.2-0.1-0.1c0.1-0.2,0.5,0,0.7-0.2c0-0.1-0.1-0.1-0.1-0.1
				c-0.2,0.1-0.7,0.1-0.7,0.2c-0.5,0.1-0.4-0.1-0.8,0.1c-0.1-0.1,0.2-0.1,0.2-0.2c-0.1-0.1-0.2,0.1-0.2,0.1c-0.1,0-0.2-0.1-0.4,0
				c-0.2,0.1-0.3,0.2-0.6,0.2c-0.2,0-0.1,0.1-0.1,0.2c-0.5,0.1-0.6,0-0.8,0c-0.4,0.1-0.3,0.2-0.4,0.3c-0.3,0-0.4-0.1-0.6-0.1
				c-0.2,0.2-0.9,0.4-1.5,0.5c0.1-0.2-0.5,0.1-0.7,0.1c-0.4,0.1-0.2,0.3-0.8,0.4c0.1-0.1,0.2-0.1,0.3-0.2c0-0.1-0.5,0.1-0.6,0.2
				c0.1,0,0.2,0,0.3,0c0.3,0,0.6-0.1,0.4,0.1l1-0.3c-0.2,0.2-0.7,0.2-1.2,0.4c-0.4,0.1-1.1,0.3-1.8,0.5c0.1-0.1-0.1-0.1-0.2-0.2
				c-0.6,0.1-0.9,0.2-1.4,0.4c0-0.1,0.2-0.2,0.4-0.3c-0.4,0-0.5,0.3-0.8,0.4c-0.4,0.1-0.3,0-0.7,0.1c-0.2,0.1,0.1,0.1,0.4,0
				c-0.2,0.2-0.4,0.1-0.7,0.1c-0.4,0.2-0.1,0.2-0.3,0.3c-0.5,0.1,0.1-0.2-0.4-0.1c0,0.1-0.6,0.2-0.4,0.3c-0.4,0.1-1,0.3-0.7,0.1
				c-0.3,0.1-0.9,0.3-1,0.4c-0.2,0,0,0,0-0.1c-0.4,0.1-0.1,0.2-0.3,0.2c-0.2,0-0.3,0.2-0.9,0.3c0-0.1,0.2-0.2,0.3-0.3
				c2.1-0.8,2.9-1.1,4.8-1.7c0.2-0.1,0-0.1-0.1,0c0.4-0.1,0.8-0.3,1.1-0.4c0.1,0,0.2,0,0.4,0c0.1,0,0.3-0.1,0.2-0.1
				c0.2,0-0.1,0.1,0.5-0.1c-0.1,0.3-0.8,0.3-1.1,0.4c0.5,0,1.3-0.1,2.1-0.3c-0.1,0-0.1,0.1-0.1,0.1c0.5-0.2,0.2-0.2,0-0.3
				c-0.5,0.1-0.3,0.2-0.8,0.3c0-0.2,0.4-0.5-0.3-0.3c0.9-0.3,2.2-0.8,3.3-0.9c0.3-0.2,1.2-0.3,1.8-0.5c0.2-0.1,0.1-0.2,0.4-0.2
				c0.3,0,0.3,0.1,0.4,0.2c0.5-0.2,0.4-0.1,1.1-0.3c0-0.1-0.1-0.1-0.1-0.1c-0.2,0.1-0.6,0.2-0.8,0.3c-0.8-0.1,0.4-0.5,1-0.5
				c0,0-0.1,0.1-0.1,0.1c0.1,0,0.7-0.1,0.6-0.2c0.7-0.1,2.1-0.4,3.1-0.7c0.7-0.2,1.5-0.2,2.1-0.3c0.3-0.1,0.7-0.2,1-0.3
				c0.5-0.1,0.9-0.1,1.2-0.3c-0.1-0.2-0.7,0-0.7-0.2c-0.5,0.2-1.4,0.3-1.6,0.1c-0.1,0.2-0.5,0.3-0.9,0.4C82.3,9,82.6,8.9,82.5,9
				c-0.7,0.2-0.4-0.2-0.3-0.3c-0.1,0-0.6,0.1-1,0.1c-0.2,0,0.2,0.1-0.1,0.2c0.1,0.1,0.5-0.3,0.8-0.1C81.9,9,81.7,9,81.7,9.1
				c-0.9,0.1-1.9,0.4-3.2,0.6c-0.4,0,0.7-0.1,0.6-0.2c0-0.1-0.4,0-0.7,0c-0.3,0-0.1,0.2-0.4,0.2c0.3-0.2-0.2-0.1-0.4-0.1
				c-0.3,0.1,0,0.2-0.2,0.1c-0.2-0.1-0.6,0-0.8,0.1C76.6,9.9,77,9.8,77,10c-0.4,0.1-0.3,0-0.6,0c-0.1,0-0.1,0.1-0.2,0.1
				c-0.1,0.1,0.3,0,0.4,0c0.1,0.1-0.3,0.1-0.3,0.1c-0.3,0.1-0.3,0.1-0.4,0.2c-0.5,0.1-1.2,0.3-1.9,0.4c0.3-0.2,0.4-0.1,0.9-0.3
				c0-0.1-0.4,0-0.7,0.1c0-0.1-0.3-0.1-0.5-0.1c-0.4,0.2,0.3,0,0.2,0.2c-0.7,0.2-0.5-0.1-0.9-0.1c-0.4,0.1-0.7,0.2-1.1,0.2
				c-0.2,0.1,0,0.1-0.2,0.2c-0.6,0.2-0.5,0-1.2,0.2c0-0.2-0.5,0-0.4-0.2c0.4,0,0.8-0.3,1-0.4c0,0-0.3,0.1-0.5,0.1
				c0.1-0.1,0.1-0.1,0.1-0.2c0.3-0.1,0.4-0.1,0.4,0c0.2,0,0.2-0.2,0.3-0.1c0.2,0,0.1,0.1-0.2,0.1c0.2,0,0.2,0.2-0.1,0.3
				c0.2,0.1,0.4-0.2,0.7-0.2c0.1,0.1,0.2,0.1,0.2,0.2c0.3-0.1,0.1-0.2,0.4-0.3c0-0.1-0.5,0.1-0.4,0c0.2,0,0.6-0.2,0.6-0.1
				c0.2-0.1,0.3-0.2,0.7-0.3c-0.2,0.2-0.1,0.3,0.5,0.1c0.3,0-0.3,0.2,0,0.2c0.1-0.1,0.2-0.2,0.6-0.2c0,0.1,0.1,0.1,0.2,0
				c-0.1,0.1-0.2,0.3,0.1,0.3c0.2-0.1,0.1-0.2,0.6-0.3c0.2,0.1-0.4,0.2-0.2,0.3c0.5-0.1,0.3-0.2,0.4-0.3c0.2,0,0,0.2,0.5,0
				c0.1-0.1,0-0.2,0.3-0.3c-0.1-0.1-0.3,0.2-0.7,0.2c0.2-0.2-0.3,0-0.4,0c-0.1,0,0-0.1,0-0.1c0,0-0.3,0-0.3-0.1
				c0.1-0.1,0.3-0.1,0.6-0.2c0,0.1-0.2,0.1-0.2,0.2c0.3-0.1,0.5-0.1,0.6-0.2c-0.1-0.2-0.6,0-1.1,0.1c-0.1-0.1,0.2-0.1,0.5-0.2
				c-0.2,0-0.4-0.1-0.1-0.3c0,0-0.2,0-0.2,0c-0.3,0.1-0.4,0.2-0.7,0.2c0.1-0.2,1-0.4,1.7-0.6c0.4-0.1,0.7-0.3,1-0.3
				c0,0-0.3,0.2-0.5,0.2c0.4,0,0.4-0.1,0.7-0.2c0.2,0,0.4,0,0.4,0c0.2-0.1,0.3-0.2,0.6-0.2c0.2-0.1,0.3,0,0.5-0.1
				c0.4-0.1,0.9-0.3,1.2-0.2c-0.1,0.2-0.5,0.4-1.1,0.5c0.1,0.1,0.6,0,1-0.1c0.3-0.1,0.1-0.1,0.1-0.2c0.2,0,0.4-0.1,0.3-0.2
				c0.2-0.1,0.6-0.1,0.5-0.2c0-0.1-0.4,0.2-0.6,0.1c0.5-0.2,1.2-0.3,1.9-0.4c0.2,0,0.3-0.1,0.5-0.2c0.5-0.1,1.2-0.2,1.8-0.3
				C85,7,86,6.8,86.6,6.8c0,0,0,0.1,0,0.1c0.1,0,0.3-0.1,0.5-0.1c-0.2,0.3,0.2-0.1,0.8-0.1c0.1,0,0.1-0.1,0.1-0.2
				c0.5,0,1.2-0.2,1.3-0.1c0.4,0,0.3-0.2,0.7-0.2c0.1,0.2-0.1,0.2-0.5,0.2c0,0.2,0.4,0.1,0.7,0.1c0.1-0.2-0.1-0.2-0.1-0.3
				c5.7-0.7,11.6-0.6,17.2-0.1c0.9,0.1,1.7,0.2,2.7,0.3c0.2,0,0.2,0,0.4,0c0.4,0.1,1.2,0.2,1.9,0.3c0.4,0.1,0.8,0,1.2,0.1
				c0.6,0.1,2.3,0.4,3.2,0.6c0.6,0.1,1.3,0,2,0.4c0.6,0.1,1.1,0.1,1.5,0.3c-0.1-0.1-0.3-0.1-0.2-0.2c0.9,0.3,1.5,0.4,2.6,0.7
				c-0.1,0.1-0.2,0-0.3,0.1c0.5,0.2,0.4-0.1,0.7-0.1c0.3,0.1,0,0.3-0.1,0.3c0.3,0.1,0.5,0,0.9,0c0.3,0.2,0.6,0.2,1.1,0.3
				c0.2,0.1,0.4,0.2,0.6,0.2c0.3,0.1,0.8,0,1.4,0.3c0.2,0.1,0.3,0.2,0.3,0.2c0.2,0.1,0.4-0.1,0.6,0.2c0.4,0.1,1.4,0.2,1.9,0.4
				c0.2,0.1,0.4,0.2,0.4,0.2c0.2,0.1,0.3,0,0.5,0.1c0.2,0.1,0.2,0.2,0.3,0.2c0.1,0,0.2,0,0.4,0.1c0.5,0.2,1.2,0.5,1.7,0.7
				c0.2,0.1,0.4,0,0.6,0.1c0.1,0.1,0.2,0.2,0.3,0.3c0.3,0,0.7,0.2,1,0.4c0.2,0.1,0.6,0.1,0.8,0.2c0.2,0.1,0.2,0.2,0.4,0.2
				c0.8,0.3,1.8,0.7,2.6,1c0.2,0.1,0.2,0.2,0.3,0.2c0.8,0.3,1.5,0.5,1.9,0.8c0.2,0.1,0.1,0.2,0.3,0.3c0.6,0.3,1.1,0.4,1.8,0.8
				c0,0.1,0.2,0.2,0.1,0.3c0.1,0.1,0.2-0.1,0.2-0.1c0.7,0.4,1.4,0.3,1.7,0.9c0.4,0.2,0.4,0.2,0.9,0.4c0.1,0.1,0.2,0.3,0,0.4
				c0.5,0.3,0.2-0.1,0.5-0.1c0.5,0.2,0.4,0.4,0.9,0.7c0.2,0.1,0.2-0.2,0.4-0.1c0.2,0.2,0.6,0.4,0.9,0.6c0.3,0.2,0.7,0.4,1.1,0.7
				c0.2,0.2,0.4,0.4,0.6,0.6c0.6,0.4,1.9,0.9,2.1,1.5c0.1,0,0.2,0,0.3,0c0.5,0.6,1.1,0.6,1.8,1.3c0.3-0.1,0.5,0.2,0.9,0.4
				c0.1,0,0-0.3-0.1-0.3c-0.1-0.1-0.3,0-0.4-0.1c-0.2-0.1-0.1-0.2-0.3-0.3c-0.2-0.1-0.3-0.1-0.5-0.2c-0.2-0.1-0.3-0.3-0.6-0.5
				c-0.2-0.2-0.6-0.3-1-0.7c-0.1-0.1-0.2-0.3-0.2-0.3c-0.1-0.1-0.5-0.2-0.8-0.4c-0.3-0.2-0.4-0.2-0.8-0.5c-0.4-0.2-0.9-0.6-1.4-0.9
				c0-0.1,0.2,0,0.2-0.1c-0.3-0.2-0.7-0.4-0.5-0.6c-0.1-0.1-0.2,0.1-0.2,0.1c-0.1,0.1,0.3,0.3,0.5,0.4c-0.4,0-1.1-0.5-1.6-0.9
				c-0.2-0.2-0.5,0-0.5-0.2c-0.1-0.3,0.1-0.1,0.3-0.1c0.1,0,0-0.1,0.3,0c0.1,0.1,0.1,0.1,0.2,0.2c-0.1,0.1-0.2-0.1-0.4-0.1
				c0.2,0.4,0.7,0.4,1,0.7c0.4-0.2-0.8-0.5-0.4-0.7c-0.6-0.3-1-0.1-1.6-0.6c-0.3,0.2,0.5,0.4,0.2,0.5c-0.5-0.3-0.9-0.5-1.1-0.8
				c0.2,0,0.8,0.4,0.6,0c-0.2-0.1-0.2,0.2-0.5-0.1c0.3-0.3-0.6-0.6-0.8-0.6c0,0.2,0.3,0.3,0.6,0.5c-0.2,0.2-0.6-0.3-0.9-0.4
				c0.4-0.1-0.1-0.3-0.2-0.6c-0.3,0.2,0.3,0.4-0.1,0.4c-0.3-0.2-0.1-0.4-0.5-0.6c-0.3-0.1,0.1,0.2,0.1,0.2c-0.6-0.2-1.2-0.5-1.9-0.9
				c-0.4-0.2-0.7-0.4-1.1-0.5c-0.4-0.2-0.7-0.3-1.1-0.5c-0.1-0.1-0.5-0.4-0.8-0.3c-0.6-0.4-1.8-0.9-2.3-1.1c0.3-0.1,0.8,0.2,1.3,0.4
				c0.7,0.3,1.3,0.6,1.8,0.8c0.1-0.2-0.2-0.3,0.1-0.4c-0.4-0.1-0.5-0.4-0.8-0.4c0.1,0.1,0.2,0.2,0.5,0.4c-0.4,0.2-0.7-0.4-1.1-0.5
				c-0.1,0.1,0.5,0.2,0.2,0.3c-0.6-0.3-1.3-0.7-2.1-1c-0.8-0.3-1.6-0.6-2.4-1c-1.6-0.7-3.3-1.2-4.7-1.7c-0.2-0.1-0.4-0.2-0.6-0.3
				c-0.3-0.1-0.5-0.1-0.7-0.2c-0.4-0.1-0.8-0.6-1.2-0.4c0-0.2-0.4-0.2-0.5-0.4c-0.2,0-0.2,0.1,0,0.1c-2.2-0.3-4.4-1.3-6.1-1.5
				c-0.2-0.1,0-0.1,0-0.1c-0.4,0-0.9-0.1-1.5-0.2c0.1-0.2,0.5,0,0.5-0.1c-0.4-0.1-1,0-1.2-0.2c0.1-0.3,0.5,0.2,0.7-0.1
				c0.4,0,0.4,0.2,0.8,0.2c0.1,0,0.1,0,0.3,0c0.1-0.1,0-0.2-0.2-0.3c0.4,0,0.5-0.2,0.6-0.3c-0.1-0.3-0.7-0.1-0.9-0.3
				c0-0.2,0.4,0,0.5,0c0.1,0,0.1-0.1,0.2-0.1c0.4,0,0.8,0.2,1.4,0.3c0.2,0.2,0.1,0.5-0.3,0.5c-0.1,0.1,0.4,0.4,0.4,0.2
				c0.3,0.2-0.3,0.1-0.3,0.2c0.3,0.1,0.4,0,0.4-0.1c0.4,0.1,0.2,0.3,0.7,0.3c-0.3,0.2-0.8-0.3-1-0.1c-0.4-0.1-0.8-0.5-1.3-0.4
				c-0.2,0.2,1,0.2,0.4,0.4c0.5,0,0.8,0.2,1.2,0.1c0.2,0.1,0.5,0.2,0.4,0.3c0.5,0,1.5,0.3,2.4,0.6c0.5,0,1.1,0.1,1.5,0.3
				c0.4,0,0.7,0,1.1,0.1c0,0.1-0.2,0.1-0.2,0.2c0.3,0.1,0.3-0.1,0.5,0c0.4,0.1,0.9,0.3,1.2,0.3c0-0.1-0.2-0.2-0.4-0.3
				c0.3,0,0.8,0.2,1,0.1c0.5,0.2,0.6,0.5,1.1,0.7c0.2,0,0-0.1,0.1-0.2c0.5,0.2,0.6,0.4,1.1,0.5c0.1,0,0.2-0.1,0.4,0
				c0.1-0.1,0-0.1-0.2-0.2c0.4,0,0.7,0.2,0.9,0.4c0.3,0.1-0.1-0.1,0.2-0.1c0.4,0.2,0,0.5,0.7,0.6c0-0.1-0.2-0.2-0.2-0.3
				c0.3,0.3,0.5,0,0.7,0.2c0,0-0.2,0.1-0.1,0.2c0.1,0.1,0.4,0,0.2-0.1c0-0.2,0.6,0.3,0.6,0.1c-0.1-0.2-1.1-0.4-0.8-0.6
				c-0.2,0-0.2,0.1-0.2,0.2L133.7,10z M121.3,5.9c0,0.2,0,0.4,0.4,0.5l0.1-0.4L121.3,5.9z M121.2,6.7l0.4,0.1
				c-0.1-0.2,0-0.5-0.6-0.5C120.7,6.5,121.5,6.5,121.2,6.7z M130.2,9.4c-0.3-0.1,0-0.4-0.6-0.5c-0.2,0.1,0.1,0.2,0.1,0.3
				C129.6,9.3,130.3,9.6,130.2,9.4z M73.1,10.4c-0.2,0.1-0.7,0.3-0.6,0.4c0.4-0.1,0.2-0.2,0.4-0.2c0,0.1,0,0.2,0.3,0.1L73.1,10.4z
				 M78.6,9.1l0.4-0.1C78.8,9,79,8.9,79,8.8C78.6,8.9,78.7,9,78.6,9.1z M78.3,8.8c0.2-0.2,0.1-0.2,0.5-0.4
				C78.4,8.5,77.7,8.8,78.3,8.8z M76.2,9.5c0-0.1,0.5-0.4-0.2-0.2c0.2,0.1-0.2,0.2-0.3,0.3C75.9,9.5,76,9.6,76.2,9.5z M76.4,9.7
				c0,0.1-0.2,0.1-0.2,0.2c0.2,0,0.2,0,0.5-0.1C76.6,9.7,76.6,9.7,76.4,9.7z M76.9,9.1c0-0.1,0.2-0.1,0.1-0.2C76.7,9,76.6,9,76.5,9
				C76.5,9.1,76.5,9.2,76.9,9.1z M79.2,9.2c-0.4,0-0.7,0.2-1.3,0.2c0-0.1-0.2,0-0.3-0.1c0-0.1,0.2-0.1,0.2-0.1c-0.3,0-0.3-0.1-0.7,0
				c-0.2,0.1-0.3,0.2-0.4,0.2c0.1,0.2,0.3,0.3,0.9,0.2c0.1-0.1-0.2,0-0.2,0c-0.1,0-0.4-0.1-0.2-0.2c0.3,0,0.5,0,0.5,0.1
				C78.3,9.5,78.8,9.4,79.2,9.2z M79.5,10c-0.3,0.1-0.6,0.1-0.7,0.2c0.4-0.2,0.3-0.1,0.7-0.1L79.5,10z M82.1,10.1
				c-0.1,0-0.9,0-0.8,0.2C81.4,10.3,82.1,10.2,82.1,10.1z M83.2,9.4c-0.6,0.1-1-0.1-1.5,0.2c-0.1,0.3,0.5,0.1,0.7,0
				C82.8,9.5,83,9.6,83.2,9.4z M84.8,9.2c-0.4-0.1-0.9,0.3-1.3,0.2C83.8,9.6,84.5,9.3,84.8,9.2z M85.3,9.7c-0.5,0.1-1.2-0.1-1.5,0.2
				C84.4,9.7,85,9.9,85.3,9.7z M80.6,8.3c0,0,0-0.1,0.1-0.1c0-0.1-0.2-0.1-0.5,0C80.2,8.4,80.3,8.4,80.6,8.3z M80.9,9.1
				c0-0.2-0.7,0.1-1,0.1C80.1,9,79.9,9,79.4,9.1C79.3,9.4,80.5,9.2,80.9,9.1z M80.8,8.8c-0.4,0.1-0.4,0-0.5,0
				c-0.2,0-0.4,0.1-0.5,0.2c0.5-0.1,0.5,0,0.3,0.1C80.4,9,81,8.8,80.8,8.8z M80.8,8.1c0.3,0,0.2,0.2,0.9,0.1
				c0.1-0.1-0.2-0.1-0.3-0.1c0,0,0.3-0.1,0.2-0.2c0,0-0.1-0.1-0.5,0C81.3,8.1,81,8,80.8,8.1z M83.6,7.9c0.2,0.3-1,0.1-0.6,0.3
				c-0.4,0-0.5,0.1-0.7,0.2c-0.4,0-0.8-0.1-1.3,0l0,0.2c0.5-0.1,0.8-0.1,0.6,0.1c0.6-0.1,1.1-0.3,1.6-0.4C83.1,8.1,84.4,8,83.6,7.9z
				 M84.8,7.1c-0.5,0.1-0.8,0.2-1.2,0.4c-0.4,0-1,0.1-1.7,0.2c0,0.1,0,0.2,0.1,0.2c0.2-0.1,0.7-0.1,0.8-0.2c-0.3,0-0.4,0.1-0.6,0
				c0.3-0.2,0.8-0.1,1-0.1c-0.6,0.2-0.2,0.2-0.6,0.4c-0.2,0-0.3,0-0.5,0c0,0.1,0.4,0.1,0.4,0.2c0,0-0.6,0.2-0.2,0.1
				c0.4-0.1,0.3-0.3,0.9-0.4c-0.3-0.2,0.1-0.2,0.3-0.3c-0.2,0,0.1-0.2,0.2-0.2c0,0.2,0.8,0,1,0.1l0-0.2c-0.3,0-0.7,0.1-0.7,0
				C84.5,7.3,85,7.3,84.8,7.1z M85.5,7.8c0.3-0.1,0.3,0,0.6,0C86.3,7.6,85.5,7.7,85.5,7.8z M86.2,7.3c-0.5,0-0.1,0.1-0.3,0.2
				c-0.3,0-0.7,0.1-0.7,0.2c0.5,0,0.8-0.2,1-0.1C86,7.4,86.3,7.4,86.2,7.3z M86.9,7c-0.2,0-0.6-0.1-0.7,0.1c0.1,0,0.1,0,0.1,0.1
				C86.6,7.1,86.9,7.1,86.9,7z M87.7,7c0.4-0.1,0.1,0.1,0.5,0c0.2,0,0.1-0.2,0.5-0.2c0.1-0.2-0.4,0-0.3-0.2c0.4-0.1,0.6,0.1,0.7-0.1
				c-0.4,0.1-0.4-0.1-0.7,0C88,6.7,87.7,6.9,87.1,7c0,0.1,0,0.1-0.1,0.2c-0.6,0.1,0.3,0,0.4-0.1c0.2,0,0.4,0.2,0.5,0
				C87.7,7,87.6,7,87.7,7z M89.2,7.1c-0.1,0-0.4,0-0.7,0c-0.1,0.2,0.4,0,0.3,0.2c-0.4,0.1-0.4,0-0.7,0c-0.2,0.1,0,0.1,0,0.2
				c0.4-0.1,1-0.1,1.1-0.3C88.5,7.4,89.2,7.2,89.2,7.1z M89.7,6.8c0.1,0.1,0.3,0.4,0.6,0.2C90.1,7,90,7,90,6.9c0.2,0,0.6,0,0.5-0.1
				c-0.4,0-0.7,0-1,0c-0.2,0-0.9,0.1-0.5,0.1L89.7,6.8z M89.3,7.5c0.2,0,1.2,0,0.8,0C90.2,7.3,89.5,7.3,89.3,7.5z M90.3,7.6
				c-0.4,0-0.1,0.2-0.5,0.1c-0.2,0-0.1-0.1-0.4-0.1l0,0.2c0.4-0.1,0.6,0,1,0C90.5,7.7,90,7.7,90.3,7.6z M91.2,7
				c0.1-0.2-1-0.1-0.7-0.1C91,6.9,90.8,7.1,91.2,7z M91.7,7.5c-0.3,0-0.5-0.1-1-0.1C90.7,7.5,91.5,7.6,91.7,7.5z M93.1,7.2
				c-0.3,0-1-0.1-1.1,0.1C92.3,7.3,93,7.4,93.1,7.2z M93.5,6.7c-0.3,0-0.6-0.2-0.7-0.1C93,6.7,93.4,6.9,93.5,6.7z M93.5,6.2
				c-0.3-0.1-1,0-1.5,0c-0.1,0.2,0.7,0,0.6,0.2c-0.2,0-0.1,0.1,0.1,0.1c0.1-0.1-0.1-0.3,0.1-0.3C93,6.4,93.4,6.3,93.5,6.2z M98,6.1
				c0.3,0,0.4,0.1,0.7,0C98.9,6,98,6.1,98,6.1z M93.9,7.3c0.1,0,0.2,0,0.2-0.1c-0.5,0-0.4,0.2-0.5,0.3l0.5,0
				C94.2,7.3,93.9,7.4,93.9,7.3z M94.2,6.3c0-0.1-0.2-0.2-0.4-0.2c0,0.1-0.2,0.1-0.1,0.2L94.2,6.3z M95.9,7.2
				c-0.6-0.1-0.8,0.1-1.2,0.1c0-0.1,0.3-0.1,0.5-0.2c-0.4-0.1-0.6,0.1-0.8,0.2c0.6,0.1,1-0.1,1.4,0.1C95.7,7.4,96,7.4,95.9,7.2z
				 M95.6,6.5c1.2-0.1-0.5-0.1-0.5,0.1C95.3,6.5,95.4,6.5,95.6,6.5z M97.1,6.5l0-0.3c0-0.1,0.9-0.1,0.5-0.1c-0.5,0-0.9,0-1.2,0
				c-0.2,0.3,0.6,0.1,0.5,0.3c-0.2,0-0.3,0.1-0.5,0.1c0.1-0.3-1.1-0.5-1.3-0.1c0.5,0,0.9,0,1.1,0c0.2,0.3-0.4,0.2-0.4,0.3
				C96.4,6.7,96.5,6.4,97.1,6.5z M98.9,7.2c-0.3,0-0.2-0.1-0.5-0.1c-0.3,0.1,0.1,0.1-0.1,0.2c0-0.1-0.2,0-0.4,0
				c-0.1-0.2,0.2-0.2,0-0.3c-0.2,0-0.4,0-0.5,0.1c0.1,0,0.1,0,0,0.1C96.9,7.2,97,7,96.7,6.9c0,0.2-0.2,0.3-0.1,0.5
				c0.5-0.1,0.6,0,1.1,0c0-0.1,0-0.1,0.2-0.1c0.4,0,0.3,0.2,0.8,0.1C98.7,7.4,99,7.4,98.9,7.2z M98.8,6.9c-0.5-0.1-0.2-0.2-0.6-0.1
				c0.1-0.2-0.3-0.2-0.2-0.3c-0.2,0-0.5,0.2-0.2,0.2c0-0.1,0.2-0.1,0.2,0l0,0.1c-0.3,0-0.8-0.1-0.8,0.1c0.2,0.1,0.6,0,0.8,0
				C98.3,7,98.7,6.9,99.2,7C99.3,6.9,99,6.9,98.8,6.9z M100.2,6.5c-0.2,0-0.5,0-0.6-0.1l0.8,0c0.1-0.1,0.2-0.1,0.1-0.3
				c-0.7-0.1-0.8,0.2-1.3,0.1c-0.1,0.1,0.2,0.1,0.2,0.2c0,0-0.2,0.1-0.2,0.1c0,0,0.2,0.1,0.2,0.1c0,0.1-0.3,0.1,0.1,0.1
				C99.3,6.4,100.1,6.6,100.2,6.5z M101.2,7c-0.2-0.1-0.8-0.1-1.2-0.1C100.1,7.2,100.9,7.1,101.2,7z M101.6,6.7c0,0,0.1,0,0.2,0
				c0.1,0,0.1,0.1,0.4,0.1c0.1,0,0.5,0,0.5-0.1c-0.2,0-0.7,0-0.7-0.1c0.6,0.1,0.3-0.1,0.5-0.2c0.1,0.1,0.4,0.1,0.7,0.1
				c-0.1-0.3-0.9-0.2-1.3-0.3c0-0.1,0.1-0.1,0.1-0.1c-0.4,0-0.2,0-0.6,0c-0.2,0.2,0.5,0,0.3,0.2l-0.6,0C101,6.7,101.7,6.5,101.6,6.7
				C101.7,6.7,101.7,6.7,101.6,6.7C101.5,6.7,101.6,6.7,101.6,6.7z M103.5,7c-0.6-0.1-0.3,0.1-0.5,0.1c-0.5,0-1-0.2-1.4-0.1
				c0.2,0,0.1,0.1,0.1,0.2c0.6-0.1,1,0,1.8,0L103.5,7z M106.7,7.4c0-0.1,0-0.1-0.1-0.2c-0.3,0-0.4,0.1-0.5,0.1
				C106.3,7.4,106.5,7.4,106.7,7.4z M108.1,7c-0.2,0-0.7-0.2-0.7,0C107.5,7.1,108.1,7.2,108.1,7z M110.8,6.9c-0.2-0.1-0.2,0-0.5-0.1
				C110.2,7.1,110.9,7.1,110.8,6.9z M110.8,7.5c-0.3-0.1-0.8-0.3-1.2-0.2C109.9,7.4,110.6,7.6,110.8,7.5z M112.9,8.6
				c-0.2-0.1-0.1-0.2-0.4-0.2l0,0.2C112.6,8.6,112.9,8.7,112.9,8.6z M113.9,8.6c-0.4-0.2-0.9-0.2-0.9,0.1c0.1,0,0.4,0.2,0.5,0.1
				c-0.1,0-0.1,0-0.1-0.1C113.8,8.8,113.8,8.6,113.9,8.6z M115.5,9.1c0.1-0.3-0.5-0.1-0.7-0.1c-0.3,0-0.8-0.3-1-0.1
				C114.4,8.9,115.1,9.1,115.5,9.1z M116.6,8.6c-0.1-0.1-0.7-0.3-0.7-0.1C116.1,8.5,116.6,8.7,116.6,8.6z M109.9,8.9
				c-0.4-0.1-0.4-0.2-0.9-0.2C108.9,8.9,109.5,9,109.9,8.9z M111.2,9.1c-0.4,0-0.6-0.3-0.8-0.2c0.5,0.1,0.3,0.2,0,0.2
				C110.7,9.2,111,9.3,111.2,9.1z M112.5,9.9c-0.1-0.2,0-0.4-0.4-0.4C112,9.7,112.3,9.8,112.5,9.9z M112.9,9.7
				c-0.6-0.2,0.5-0.3-0.3-0.4C112.4,9.4,112.6,9.7,112.9,9.7z M116,10c0.1,0,0.1,0.1,0.1,0.2c0.2,0,0.4,0.1,0.5,0
				C116.7,10.1,116.2,9.9,116,10z M116.8,11c0-0.1,0.1-0.2-0.1-0.3c0,0.1-0.3-0.1-0.3-0.1c0-0.1,0.3,0,0.3-0.1
				c-0.5-0.1-1.2-0.2-1.7-0.3c-0.3-0.1-0.4-0.3-0.6-0.4c0.4,0.1,1.1,0,0.9-0.2c-0.3,0.2-1.1,0-1.2,0.2c0,0,0.4,0.1,0.2,0.2
				c-0.2-0.1-0.5,0.1-0.6-0.1c0.1,0,0.3,0.1,0.4,0c-0.2-0.1-0.5-0.2-0.5-0.3c0.1-0.1,0.2-0.1-0.1-0.2c0.1,0.2-0.4,0-0.3,0.3
				c0.3,0,0.4,0,0.5,0.1c-0.2,0.2-0.3,0.3-0.5,0.5l0.5,0.1c0.2-0.1-0.4-0.3-0.1-0.3c0.1,0,0.5,0.1,0.5,0.1c0,0-0.3,0-0.2,0
				c0.3,0.1,0.7,0.1,1,0.2c0.2,0,0.6,0.3,0.7,0.1c-0.6-0.1-0.7-0.3-1.1-0.5c0.4-0.1,0.6,0.3,0.9,0.3c0.2,0,0.9,0,1,0.2
				c0,0.2-0.7-0.2-0.6,0C116.1,10.7,116.2,10.9,116.8,11z M119.3,10.1c0-0.2-0.3-0.6-0.7-0.5c0.1,0,0.2,0.1,0.2,0.2
				c-0.2,0.1-0.5-0.1-0.8-0.1c0.2-0.2-0.1-0.2-0.2-0.3c-0.4-0.1-0.5,0-0.8-0.1c0,0.2,0.1,0.1-0.1,0.3L119.3,10.1z M122.6,10.7
				c-0.4-0.1-0.8-0.2-1.1-0.2c0-0.2,0.4,0,0.4-0.1c-0.1,0-0.2-0.1-0.2-0.1l-0.2-0.1c0,0.1,0,0.2-0.2,0.2c-0.1-0.3-0.6-0.2-0.9-0.2
				l0-0.2c-0.5,0.1-1.2-0.5-1.3-0.2c0.5,0.1,0.8,0.3,0.5,0.4c0.5,0.1,0.9,0.2,1.1,0.1C121.4,10.4,122.3,11.1,122.6,10.7z
				 M124.4,13.2c-0.4,0-0.4-0.2-0.6-0.1c0.2,0.2,0.2,0.1,0.5,0.2L124.4,13.2z M125.5,12.2c-0.1-0.1-0.4-0.2-0.7-0.3
				C124.6,12.1,125.5,12.3,125.5,12.2z M125.8,11.7c-0.8-0.2,0.2-0.2-0.1-0.4c-0.5-0.2-0.9-0.2-1.3-0.3c-0.3,0,0.1,0.3-0.2,0.2
				c-0.2-0.2-0.4-0.4-0.8-0.6c-0.2,0-0.4,0.1-0.5,0.3c0.4,0.1,0.9,0.3,0.5,0c0.4,0.1,0.6,0.3,1,0.5
				C124.7,11.2,125.4,11.8,125.8,11.7z M126,11.4c0.1,0.1,0,0.1,0,0.1c0.3,0.1,0.2,0.3,0.5,0.4C126.7,11.9,126.3,11.3,126,11.4z
				 M167.8,42.1c0.1,0.1,0.2,0.3,0.3,0.2c-0.2-0.3,0.5,0,0.1-0.4C168,42,168,42.1,167.8,42.1z M165.2,36.7c0.3,0.4,0.5,0.7,0.9,0.8
				C166,37.4,165.4,36.8,165.2,36.7z M160,34.1c0.3,0.2,0.3,0.3,0.5,0.5C160.6,34.5,160.1,33.9,160,34.1z M158.6,33
				c0.3,0.1,0.4,0.5,0.7,0.6C159.3,33.4,158.8,32.7,158.6,33z M150,26.1c0.1,0,0.2-0.1,0.4-0.1c-0.1-0.1-0.2-0.2-0.4-0.3
				C149.9,25.8,149.8,25.9,150,26.1z M146.3,21.9c0.4,0.2,0,0.4,0.6,0.6c0.2-0.2-0.2-0.4,0.1-0.4C146.7,22,146.5,21.9,146.3,21.9z
				 M143.8,22.4c0.4,0.1,0.2,0.2,0.3,0.4c0.1-0.2-0.1-0.3-0.1-0.5c0.1-0.1,0.3,0.1,0.3-0.1C143.7,21.8,144,22.2,143.8,22.4z
				 M138.1,19.1c0.3,0.2,0.5,0.2,0.7,0.2C138.4,19.1,138.3,18.8,138.1,19.1z M136,16.5l0.5,0.3C136.7,16.6,136,16.2,136,16.5z
				 M134.7,17.1c0.3,0.1,0.6,0.3,0.7,0.2C135.1,17.2,134.7,16.8,134.7,17.1z M133,16.2c0.3,0.2,1,0.2,0.8,0
				C133.7,16.2,133,15.7,133,16.2z M130.9,14.2c0,0.2,0.2,0.4,0.7,0.5C131.9,14.5,131.3,14.4,130.9,14.2z M128.4,14.7
				c0.3,0.3,0.7,0.3,1,0.6c0.1-0.1-0.2-0.1-0.3-0.2C128.9,14.8,128.6,14.5,128.4,14.7z M127.2,12.2c0.5,0.1,0.9,0.1,1.2,0
				c-0.3-0.1-0.7-0.4-1-0.3C127.6,12,127.3,12.2,127.2,12.2z M130.1,13c0.2-0.2-0.6-0.3-0.8-0.5c-0.2,0-0.2,0-0.5-0.1
				c0.1-0.1,0-0.2-0.3-0.3c-0.2,0.2,0.3,0.2,0.1,0.4c-0.4-0.2-0.5-0.1-0.7-0.1C128.6,12.6,129.6,12.7,130.1,13z M136,15.4
				c-0.1,0-0.1-0.1-0.1-0.2c-0.4-0.1-0.2,0-0.5-0.2C135.2,15.2,136,15.5,136,15.4z M138.1,16.3c-0.2-0.1-0.4-0.2-0.5-0.1
				c0.1,0.1,0.2,0.2,0.4,0.3L138.1,16.3z M138.8,16.7c0-0.2,0-0.5-0.5-0.7c-0.2,0.2,0.1,0.2,0.1,0.3c0,0-0.2,0-0.1,0.1L138.8,16.7z
				 M146,20.1c-0.3-0.2-0.5-0.3-0.7-0.2c0.3,0.2,0.2,0.3,0.5,0.5L146,20.1z M177.3,51.7c-0.1,0.1-0.3-0.1-0.6-0.3
				c0.1,0.2-0.1,0.2,0.1,0.5C177,51.9,177.6,52.1,177.3,51.7z M178.7,53.9c0-0.1,0-0.1,0.1-0.2c-0.2-0.4-0.3-0.3-0.5-0.4
				C178.4,53.5,178.6,53.9,178.7,53.9z M192.7,110.1c0-0.3,0.2-0.5,0.1-0.7C192.8,109.5,192.6,109.9,192.7,110.1z M192.3,111.8
				c0-0.2,0.1-0.3,0.1-0.2c0.1-0.4,0-0.4,0-0.8c-0.1,0-0.2,0.6-0.2,0.7c0,0.1,0.1,0,0.1,0.1C192.2,111.6,192.1,111.9,192.3,111.8z
				 M192.3,113.9c0.1,0.1,0.2-0.6,0.2-0.7C192.4,113.4,192.3,113.6,192.3,113.9z M181.9,147.4C181.7,147.8,181.7,147.9,181.9,147.4
				L181.9,147.4z M183.4,144.5c0,0-0.2,0.3-0.4,0.6C183,145.2,183.2,144.9,183.4,144.5z M184.9,143.9c-0.1,0.1-0.1-0.1-0.3,0.3
				c0,0.1-0.1,0.2,0,0.1C184.8,144.1,184.8,144.1,184.9,143.9z M186.5,141.1c0-0.1-0.1,0.1-0.2,0.2c0-0.1,0-0.3-0.2,0.2
				c0,0,0.1,0,0.1-0.1c-0.1,0.2-0.2,0.3-0.1,0.3C186.3,141.4,186.4,141.3,186.5,141.1z M185.2,139.9c-0.1,0.3-0.5,1-0.4,1
				c0.1-0.1,0-0.2,0.2-0.4c0,0,0.1,0,0.1-0.2C185,140.4,185.2,139.9,185.2,139.9z M186.9,140.1c-0.1,0.3-0.3,0.7-0.2,0.6
				c0.2-0.4,0.2-0.7,0.5-1.1C187.2,139.4,187,139.9,186.9,140.1z M187.4,138.7c0,0.2-0.2,0.6-0.2,0.6
				C187.5,138.8,187.7,138.3,187.4,138.7z M188.3,131.2c0.1-0.3,0.2-0.2,0.2-0.5C188.5,130.5,188.3,131,188.3,131.2z M191.5,122.8
				l0.1,0l0.1-0.4C191.6,122.4,191.5,122.4,191.5,122.8z M193.5,107.7c0,0.4,0,1.2,0,1C193.5,108.5,193.6,107.5,193.5,107.7z
				 M193.9,106.2c0,0.3-0.2,0.2-0.2,0.7C193.8,106.9,194,106.4,193.9,106.2z M193.3,105.1c0.2,0.1,0.1-0.7,0-0.8
				C193.3,104.5,193.2,104.8,193.3,105.1z M193.9,100.7c0,0.3-0.1,0.2-0.2,0.4c0,0.5,0,0.9,0.1,1.1c-0.1,0-0.1,0.3-0.1,0.4
				c0.2,0.7,0.1,1.6,0,2.3c0.1-0.1,0,0.7,0.1,0.2c0-0.2,0-0.3,0-0.5c0.1,0,0.2-0.5,0.2-0.7c0-0.2,0-0.3,0-0.6c0-0.3,0.1-0.7,0.1-1
				c0-0.2-0.1-0.2,0-0.4C194.1,101.5,194.1,100.7,193.9,100.7z M192.5,86.1c0,0.3-0.1,0.6,0,0.9c0,0.3,0.2,0.4,0.2,0.6
				c0,0.1,0,0.1,0,0.1c0,0.1,0.1,0.1,0.1,0.1c0.1,0.6,0.2,0.9,0.4,1.1c0-0.4-0.3-1.1-0.4-1.8C192.7,86.8,192.8,86.2,192.5,86.1z
				 M186,70.7c0.1,0.3,0,0.5,0.2,0.7C186.5,71.4,186.1,70.6,186,70.7z M187.1,72.6c0-0.5-0.4-0.4-0.4-0.1
				C186.9,72.3,187,72.8,187.1,72.6z M187.3,71.9c0.1,0.3-0.1,0.3,0,0.6C187.6,73.1,187.6,72,187.3,71.9z M192.3,85.9
				c0.2,0,0.1-0.3,0.3-0.3c0,0.1,0,0.2,0.1,0.2C192.5,85.2,192.2,85.2,192.3,85.9z M193.7,78.7c-0.1,0.3,0.1,0.8,0.3,1
				C193.9,79.1,194,78.8,193.7,78.7z M192.8,75.4c0.2,0.4,0,0.5,0.1,0.9c0.2,0,0.2,0.2,0.3-0.1C193.1,76,193,75.3,192.8,75.4z
				 M190.7,68.7c0,0.2,0.1,0.6,0.2,0.6C191,69.1,190.8,68.7,190.7,68.7z M187.6,70.3c0,0.4,0.2,0.5,0.4,0.9c-0.3,0,0.1,0.4,0.1,0.5
				c0.1,0.2-0.1,0.3,0,0.6c0.2-0.2,0.3,0.6,0.5,0.6c0.1,0.2,0.2,0.6,0,0.5c-0.1-0.4,0-0.5-0.2-0.6c0,0.2,0,0.4,0.1,0.6
				c0.1,0.2,0.7,0.8,0.4,1c0-0.1-0.1-0.1-0.1,0c0.2,0.1-0.1,0.7,0.3,0.8c0.1-0.1-0.1-0.4,0-0.5c0.2,0.5,0.1,1,0.4,1.2
				c0,0.1-0.1,0.2-0.1,0.3c0,0.1,0.2,0.7,0.2,0.8c0,0-0.1,0-0.1,0c0,0.2,0.2,0.4,0.2,0.7c-0.1,0-0.2,0-0.1,0.2
				c0.2,0.2,0.2-0.1,0.3-0.2c0.2,0.5,0.3,0.1,0.5,0.6c0.1,0.2-0.1,0.2,0,0.5c0.1,0.1,0.2,0.3,0.2,0.4c0.2,0.7,0.5,1.5,0.5,2.3
				c0.1,0.1,0.2,0.1,0.3,0.4c0.3,1.3,0.5,1.8,0.7,3.2c0.4,0,0-0.9-0.1-1.3c-0.1-0.7-0.2-1.4-0.3-2c-0.1,0-0.2-0.1-0.2-0.2
				c-0.1-1-0.4-1.5-0.7-2.4c0.1-0.1,0.3,0.3,0.1-0.2c-0.1-0.1-0.2-0.4-0.4-0.5c-0.2-0.9-0.5-1.7-0.5-2.1c-0.2-0.4-0.4-0.9-0.4-1.3
				c-0.3,0.2-0.3-0.6-0.5-0.7c0.1,0,0.2,0.3,0.3,0.3c-0.2-0.4-0.1-0.6-0.3-1c-0.3-0.1,0.1,0.5,0,0.5c-0.2,0-0.1-0.6-0.4-1
				c-0.1,0-0.2,0-0.2-0.2c0.3,0.2,0-0.1-0.1-0.4c-0.1-0.5-0.2-0.9-0.5-1c0.1,0,0.2,0,0.3,0c-0.1-0.4-0.2-0.3-0.4-0.5
				c-0.2-0.7-0.4-1.4-0.3-1.7c0.1,0,0.2,0.2,0.2-0.1c-0.1-0.1-0.3-0.1-0.4-0.2c-0.1-0.3,0.1-0.6-0.3-0.7c0.1,0.5,0.4,0.8,0.3,1.1
				c-0.1-0.2-0.3-0.5-0.4-0.7c-0.3-0.5,0-0.2-0.2-0.6c-0.3-0.2-0.2,0.3,0,0.9C187.3,69.7,187.6,70.4,187.6,70.3z M185.4,65.2
				c0.2,0,0.1-0.5-0.1-0.6C185,64.6,185.2,65,185.4,65.2z M182.6,62.4c0.1,0.3,0.3,0.7,0.3,0.9c0.1-0.1,0.2-0.6,0-0.6
				c0,0.1,0,0.1,0,0.1C182.9,62.6,182.8,62.5,182.6,62.4z M182.9,61.4c0,0.2,0.2,0.6,0.4,0.6C183.3,61.8,183.1,61.5,182.9,61.4z
				 M183,61c-0.3,0.1,0,0.3,0.1,0.6C183.4,61.6,183.1,61.2,183,61z M186.4,59.1c0,0.4,0.4,0.5,0.5,0.7
				C186.7,59.4,186.5,59.2,186.4,59.1z M186.6,58.7c0.2,0,0.1-0.3-0.1-0.6C186.3,58.1,186.5,58.4,186.6,58.7z M185.5,57.3
				c0.1,0.3,0.2,0.5,0.4,0.5C185.9,57.6,185.7,57.1,185.5,57.3z M181.9,57.6c0.1,0.4,0.3,0.1,0.4,0.5c0.1,0.2,0.3,1.2,0.6,1.2
				c-0.1-0.4-0.5-0.8-0.4-1c0,0,0.2,0.3,0.1,0.1C182.4,58.2,182.2,57.3,181.9,57.6z M184.8,55.9c0.2,0.3,0.1,0.3,0.2,0.6
				c0.1,0,0.2-0.1,0.2-0.2C185.1,56,184.9,55.9,184.8,55.9z M180,54.4c0.5,0.4,0.3,0.9,0.6,1c-0.1-0.3,0.1-0.5-0.1-0.9
				c-0.2-0.1-0.2,0-0.2,0.1C180.2,54.5,180.1,54.4,180,54.4z M179.8,53.2c0.1,0.3,0.3,0.3,0.4,0.2C180.1,53.1,179.8,52.9,179.8,53.2
				z M176.3,47.5c0,0.1,0,0.1,0,0.2c0.1,0.3,0.5,0.6,0.5,0.7c-0.1,0.1-0.3-0.4-0.4-0.3c0.1,0.4,0.3,0.4,0.5,0.7
				c0.1-0.3,0.2-0.1,0.3-0.3C176.8,48.2,176.5,47.8,176.3,47.5z M171.6,42.1c0.2,0.2,0.1,0.3,0.2,0.4c0.1-0.2,0.2,0,0.4-0.1
				C172,42.1,171.8,42.2,171.6,42.1z M170.5,40.8c0.1,0.2,0.1,0.5,0.4,0.6c0.1-0.1,0.1-0.1,0.1-0.2c0.4,0.2,0.3,0.7,0.6,0.7
				c0.1-0.2-0.4-0.7-0.5-1c-0.1,0-0.2,0.2-0.3,0.1c0.1-0.1-0.2-0.3-0.2-0.5C169.9,40.2,170.3,40.5,170.5,40.8z M162.5,26.3
				c0.4,0.3,0.4,0.5,0.8,0.6c-0.1-0.1,0-0.1,0.1-0.1C163,26.6,162.9,26.1,162.5,26.3z M162.2,26.2c0,0.1,0.1,0.2,0.2,0.2
				c-0.1-0.2,0-0.4-0.3-0.6C161.9,25.9,162.3,26.1,162.2,26.2z M161,25c0.1,0.2,0.5,0.5,0.7,0.4C161.3,25.2,161.3,24.9,161,25z
				 M157.5,25.4c0.3,0.2,0.6,0.4,0.8,0.4C158,25.4,157.8,25.4,157.5,25.4z M158.6,23.2c0.3,0.3,0.4,0.4,0.7,0.4
				C159.1,23.2,158.7,23.1,158.6,23.2z M150.5,19.9c0.2,0.2,0.5,0.3,0.7,0.3c0.1-0.1,0.1-0.2,0-0.4C151,20.3,150.7,19.9,150.5,19.9z
				 M149.9,19.4c0,0.1,0.2,0.4,0.4,0.3c-0.1-0.4,0.3,0.1,0.5,0.2C151,19.5,150.1,19.4,149.9,19.4z M146.1,15.8
				c0.1,0.2,0.7,0.6,0.8,0.4C146.5,16.2,146.4,15.8,146.1,15.8z M141.9,13.7c0.1-0.1,0.2,0,0.4,0.1c0.2-0.2,0-0.3-0.2-0.5
				c0,0.1-0.2,0.1-0.4,0C141.5,13.4,141.7,13.5,141.9,13.7z M141,12.9c0,0.2,0.1,0.3,0.1,0.5C141.2,13.2,141.6,13,141,12.9z
				 M140.4,14.1c0.5,0.1,1.2,0.6,1.5,0.4c-0.1-0.2-0.1,0-0.4-0.1C141.1,14.3,140.5,13.8,140.4,14.1z M136.8,11.9
				c-0.2,0-0.6-0.1-0.7,0c0.3,0.1,0.3,0.2,0.5,0.3L136.8,11.9z M137.6,11.8c0.3,0.1,0.4,0.2,0.6,0.2c0.2-0.1,0.1-0.5-0.1-0.3
				C138.3,11.8,137.7,11.7,137.6,11.8z M135.8,10.8c0.3,0.1,0.9,0.5,1,0.3C136.5,11,135.8,10.6,135.8,10.8z M135.8,10.9
				c-0.1,0.3,0.9,0.4,1.3,0.7c0.1-0.1,0.4,0.1,0.4,0C136.7,11.2,136.5,11.3,135.8,10.9z M189.8,77c0.2,0,0.3,0.3,0.4,0.6
				c-0.1,0-0.2-0.1-0.2-0.3c-0.1,0,0,0.1,0,0.1C189.9,77.5,189.8,77.2,189.8,77z M77.5,10c0-0.1,0.4-0.1,0.7-0.2
				C78.1,9.9,77.7,9.9,77.5,10z M169,39.5c-0.3-0.1-1-0.8-1.1-1.2c0.2-0.2,0.1,0.1,0.2,0.3C168.4,38.7,168.8,39.2,169,39.5z
				 M156.9,27.8c-0.3-0.2-0.7-0.5-1.3-0.9C156.1,27.1,156.7,27.5,156.9,27.8z M87.7,5.7c0.2-0.3,1.1-0.3,1.6-0.3c0.3,0,0.9-0.2,1,0
				C89.3,5.4,88.3,5.6,87.7,5.7z M73.7,9.9c0.2,0,0.2-0.1,0.5-0.2c0.1,0.1,0.2,0.1,0.3,0.3C74.1,10,73.8,10.1,73.7,9.9z M85.2,5.9
				c0.3-0.2,1.1-0.2,1.6-0.3C86.5,5.8,85.7,5.8,85.2,5.9z M96.1,5.1c-0.7,0-1.5,0-2.1,0.1c1.1-0.3,2.2,0,3.8-0.2
				C98,5,96.6,5,96.1,5.1z M73,9.9l1.2-0.3C73.9,9.7,73.1,10,73,9.9z M69.7,11c0.1-0.1,0.4-0.2,0.7-0.2C70.3,10.9,70,10.9,69.7,11z
				 M71.6,10.4c0.4-0.2,0.7-0.2,1.2-0.3c-0.2,0.1-0.5,0.2-0.9,0.4C71.8,10.3,71.7,10.3,71.6,10.4z M82.9,8.8c0.5,0,0.5-0.2,0.8-0.2
				c0.3,0.2,0.8-0.1,1.1-0.1c-0.1,0-0.1,0.1-0.1,0.2c-0.2,0-0.8,0.2-0.8,0.1C83.6,8.8,82.9,9,82.9,8.8z M191.7,97.4
				c-0.1-0.8-0.1-1.5-0.2-2.5c0.1,0.6,0.2,1.4,0.3,2.2C191.8,97.4,191.8,97.4,191.7,97.4z M181.8,47.9l0.5,0.7
				C182.2,48.6,181.6,48,181.8,47.9z M194.4,119.4c0.1,0,0,0.5-0.1,0.7c0,0.2-0.2,0.7-0.2,0.6C194.3,120.2,194.3,120,194.4,119.4z
				 M185,53.1c0,0.3,0.4,0.8,0.6,1.3c0.2,0.5,0.6,1,0.5,1.2C185.7,54.8,184.7,53.5,185,53.1z M194.9,82.6c0.1-0.4,0.2,0.9,0.4,1.1
				c-0.1,0,0,0.2,0,0.4C195,83.9,195.1,82.7,194.9,82.6z M187.8,60.4c0.1,0.3,0.2,0.6,0.1,0.7C187.7,60.7,187.5,60.4,187.8,60.4z
				 M184,52.7c0.1-0.1,0.3,0.6,0.4,0.5c-0.1,0.2,0.5,0.8,0.2,0.9C184.4,53.5,184.4,53.2,184,52.7z M182,49.2
				c0.3,0.5,0.2,0.7,0.4,1.1C182.4,50.3,181.7,49.2,182,49.2z M184,53.1c0.2,0.4,0.4,0.8,0.2,0.9C184.2,53.7,183.7,53.2,184,53.1z
				 M184.5,54.6c0.2,0-0.2-0.5,0.1-0.5c0.2,0.4,0,0.5,0.2,0.9C184.7,55,184.6,54.9,184.5,54.6z M192,103.2c-0.2-0.2-0.1-0.9-0.1-1.3
				c0-1.1,0-2-0.1-2.9c0-0.5-0.2-1.1,0-1.3c-0.1,0.9,0.1,1.9,0.2,2.9C192,101.4,192,102.2,192,103.2z M191.3,92.9
				c0-0.2-0.2-0.9-0.1-1.2C191.4,92.1,191.4,92.6,191.3,92.9z M190.4,86.2c-0.1-0.2-0.2-0.5-0.2-0.8
				C190.4,85.3,190.4,85.9,190.4,86.2z M191.2,91.5c-0.2,0-0.3-1.3-0.2-1.5C191.1,90.3,191.1,91.1,191.2,91.5z M191.7,112.1
				c-0.1-0.4,0-0.7,0-1.2C191.9,111.1,191.7,111.7,191.7,112.1z M190.6,121.5c-0.1-0.2,0.1-0.4,0.1-0.7c0.2-1,0.3-2.4,0.5-3.4
				c0.2,0.2-0.1,0.8-0.1,1.1C190.9,119.3,190.8,120.2,190.6,121.5z M192,104.7c-0.1-0.2-0.1-1.4,0-1.3
				C191.9,103.8,192.1,104.1,192,104.7z M191.8,110.7c-0.1,0-0.1-0.6,0-0.7C191.9,110,191.8,110.4,191.8,110.7z M175,38.7
				c0.3,0.1,0.7,0.8,1,1.1C175.7,39.7,175.4,39,175,38.7z M117.2,5.6c0.2-0.1,0.6,0,0.8,0c0-0.1-0.1-0.1-0.2-0.2
				c0.2-0.2,0.1,0.2,0.5,0.2C117.9,5.7,117.4,5.8,117.2,5.6z M114.3,5c0.2-0.3,0.6,0,1,0.1C115.1,5.2,114.6,5,114.3,5z M118.5,5
				c0.4,0.1,0.7,0.1,0.7,0.3C119.1,5.2,118.3,5.2,118.5,5z M115.6,4.7c0.2-0.1,0.7,0.1,0.9,0.2c0.3,0.1,0.4,0,0.6,0.1
				C116.6,5.1,115.9,4.8,115.6,4.7z M118.2,5.5c0.1-0.1,0.4,0.1,0.6,0.1c0.1,0,0.1-0.1,0.2-0.1c0.2,0,0.2,0.1,0.4,0.1
				c0.1,0,0.4-0.2,0.8,0c0.1,0.2-0.3,0.1-0.5,0c0,0.2-0.4,0.2,0,0.3c-0.2,0.2-0.2-0.1-0.4-0.1c-0.2,0-0.1,0.1-0.2,0.1
				c-0.2,0-0.5-0.2-0.8-0.2C118.4,5.5,118.3,5.5,118.2,5.5z M125,6.9c0.6,0.2,0.8,0,1.5,0.3c-0.1,0.1,0.1,0.2,0.3,0.2
				c-0.4,0.2-1.1,0-1.5-0.4c0,0.2,0.2,0.3-0.1,0.3c0.5,0.1,1.9,0.5,1.9,0.9c-0.5-0.2-0.6-0.4-1.1-0.5c-0.1-0.1-0.5,0.1-0.2,0.1
				c-0.8,0-2.1-0.7-2.8-0.7c0.3-0.2,0.9,0,1.2,0c0.1-0.1-0.4-0.4-0.4-0.2c-0.4-0.3,0.5,0,0.8,0.1c0.2,0.2-0.1,0.2-0.2,0.3
				c0.5,0.1,0.7,0.2,1.1,0.4c0.2-0.2-0.3-0.3-0.4-0.3c0,0,0.2,0,0.2-0.1c-0.1-0.1-0.5-0.1-0.3-0.3C125,7.1,125,7,125,6.9z
				 M118.4,4.5c0.5,0.1,1-0.1,1.4,0c0.3,0,0.1,0.1,0.5,0.1c0.7-0.1,1.8,0.1,3.2,0.4c0.1,0.1,0.4,0.2,0.4,0.3c0,0.3-0.8,0-0.5,0.3
				c-0.5,0-0.5-0.2-1-0.2c-0.1,0.3,0.7,0.3,1.2,0.5c0,0.1-0.2,0.1-0.2,0.2c-0.5-0.4-1.4-0.4-2.3-0.6c0-0.1,0.2-0.1,0.4,0
				c0.3,0,0.4-0.1,0.6-0.2c-0.4-0.3-0.4,0-0.6,0c-1-0.3-1.8-0.6-2.6-0.5C118.8,4.7,118.7,4.6,118.4,4.5z M120.8,4.9
				c0,0.1,0.3,0.1,0.3,0.2c0.1-0.2-0.4-0.3-0.8-0.4C119.5,4.6,120.5,4.8,120.8,4.9z M124,6.6c-0.1,0.1-0.3,0-0.3,0.1
				c0,0.1,0.5,0.2,0.7,0.2c0-0.1-0.1-0.1-0.2-0.1c0-0.2,0.4-0.2-0.2-0.3c0.3-0.1,0.4,0,0.7,0.1c0.1,0-0.3,0-0.3,0
				c-0.1,0,0.7,0.1,0.8,0.2c0,0.2-0.2,0.1-0.4,0c-0.4,0.2-1,0.2-1.8,0c0.1,0,0.2-0.1,0.2-0.2c-0.3,0-0.3,0.2-0.8,0.1
				c0.1-0.2,0-0.3-0.3-0.3c0.2-0.3,0.8,0,1.3,0c0,0.2-0.2,0.1-0.1,0.2C123.7,6.6,123.6,6.4,124,6.6z M113.8,5.4c0-0.1,0.4,0,0.4-0.1
				c0.3,0,0.7,0.1,1,0.1c0.4,0.1,0.9,0.1,0.9,0.3c-0.3,0-0.2-0.2-0.6-0.2l0,0.2c0.3,0.3,0.7,0.1,1.3,0.3c0.1,0.3-0.4,0-0.6,0
				c-0.2,0-0.4,0-0.6,0c-0.6,0-1.3-0.2-1.7-0.2c-0.3-0.2,0.2-0.1,0.2-0.3c0.1,0.3,1,0.4,1.4,0.3c-0.1-0.2-0.3-0.3-0.7-0.4
				c-0.1,0.1,0,0.2,0.3,0.2C114.6,5.9,114.3,5.5,113.8,5.4z M126.9,7.4c0.6-0.1,0.6,0.3,1.3,0.5c-0.5-0.2-0.2-0.3,0.3-0.2
				c-0.2,0.3,0.4,0.2,0.6,0.5c-0.1,0-0.6,0-0.1,0.2c-0.2,0.2-0.6-0.1-1-0.2c0.1-0.1,0.6,0.1,0.6-0.2c-0.1,0-0.1,0-0.2,0.1l-0.8-0.2
				c-0.2,0,0.1,0.4-0.4,0.1C127,7.7,127.8,7.6,126.9,7.4z M110.2,4.4c-0.4-0.1-0.3-0.2-0.7-0.1C109.4,4,110.3,4.2,110.2,4.4z
				 M41.9,25.6c-0.3,0.3-0.9,0.7-1.2,1C40.9,26.3,41.5,25.8,41.9,25.6z M110.1,4.5c0.3-0.1,0.6-0.1,0.7-0.2c0.4,0.1,1,0.1,1,0.3
				c-0.2-0.1-0.8-0.1-1.1-0.1c0,0.1,0.1,0.1,0.2,0.1C110.7,4.6,110.3,4.6,110.1,4.5z M40.4,26.5c0,0,0.2-0.1,0.4-0.3
				c0,0-0.2,0.1,0,0c0.3-0.3,0.7-0.7,1.1-1c0.6-0.5,1.2-1,1.9-1.6c0.1-0.1,0.3-0.2,0.3-0.2c0.9-0.8,1.9-1.5,2.9-2.3
				c0.2-0.1,0.4-0.3,0.6-0.4c0.1-0.1,0.3-0.2,0.4-0.3c0.2-0.1,0.3-0.2,0.5-0.3c0.7-0.5,1.6-1.1,2.3-1.6c-0.1,0.1,0.2-0.1,0.1,0
				c0.4-0.3,0,0,0-0.1c0.7-0.5,1.1-0.7,1.4-1c0.2-0.2,0.3-0.2,0.4-0.2c0.2-0.1,0.4-0.3,0.7-0.4c-0.2-0.1,0.3-0.2,0.5-0.4
				c-0.2,0.1-0.3,0.1-0.5,0.1c-0.2,0.1,0.1,0-0.2,0.2c-0.3,0.2-0.4,0.2-0.7,0.4l0-0.1c-0.3,0.2,0,0.1-0.5,0.5c0,0,0.1-0.1,0.1-0.1
				c-0.4,0.3-0.5,0.4-0.8,0.6c-0.3,0.2-0.5,0.4-1.1,0.8c0.1-0.1,0.3-0.3,0.6-0.5c-0.1,0-0.3,0.1-0.4,0.2c-0.2,0.2,0.1,0,0.1,0
				c0,0.1-0.2,0.1-0.3,0.2c-0.1,0.1-0.1,0.2-0.5,0.4c-0.1,0,0.2-0.2,0.3-0.2c0.1-0.1-0.1,0,0.2-0.2c-0.4,0.2-0.6,0.4-1,0.7
				c0,0.1,0.4-0.3,0.5-0.3c0.2,0-0.3,0.3-0.4,0.4c-0.3,0.2-0.1,0-0.1,0c-0.2,0.1-0.3,0.1-0.7,0.4c0-0.1,0.3-0.4,0.5-0.4
				c0.3-0.2-0.3,0.2-0.1,0c0.2-0.2,0.5-0.3,0.7-0.5c0.1-0.1,0.2-0.2,0.4-0.3c0.5-0.3,1-0.7,1.5-1c0.2-0.1,0.3-0.2,0.4-0.3
				c0.7-0.5,1.7-1,2.4-1.5c0.3-0.2,0.5-0.3,0.8-0.5c0.4-0.3,0.9-0.5,1.4-0.8l1.4-0.7c0.9-0.5,1.9-1,2.8-1.4c0.2-0.1,0.3-0.1,0.5-0.2
				c0.4-0.2,0.8-0.4,1.2-0.6c0.4-0.2,0.5-0.2,0.9-0.4c0.3-0.2,0.3-0.1,0.6-0.2c0.5-0.3,1.2-0.5,1.8-0.8c0.2-0.1,0,0.1-0.2,0.2
				c0.5-0.1,1-0.5,0.9-0.5c0.4-0.1,1-0.4,1.1-0.3c0.2-0.2,0.6-0.3,1-0.4c0.4-0.1,0.7-0.2,1-0.4c0.2-0.1,0.3,0,0.4-0.1
				c0.1,0,0.2-0.1,0.3-0.2c0.5-0.2,1.4-0.4,2.1-0.6c0.2-0.1,0.6-0.2,0.6-0.3c0.1,0,0.1,0,0.1,0.1c0.6-0.2,1.2-0.4,1.7-0.5
				c0.1,0,0.1-0.1,0.1-0.1c0.5-0.1,0.7-0.2,1-0.2c0.3-0.1,0.2-0.1,0.3-0.2c0.3,0,0.8-0.2,1.3-0.3c0.3-0.1,0.9-0.2,1.1-0.3
				c0.2-0.1,0.5-0.2,0.7-0.3c0.9-0.2,1.8-0.5,2.5-0.6c0.7-0.1,1.4-0.4,1.9-0.4c0.2-0.1,0.3-0.1,0.5-0.2c0.2,0,0.2,0,0.4,0
				c0.3-0.1,0.7-0.2,1-0.3c0.7-0.1,1.4-0.1,2.1-0.3c0.2,0,0.2-0.1,0.4-0.1c0.2,0,0.4,0,0.6,0c0.2,0,0.3-0.1,0.5-0.2
				c0.1,0,0.2,0,0.4,0c0.2,0,0.3-0.1,0.5-0.1c1-0.1,2-0.1,2.8-0.3c0.2,0,0.2,0,0.4,0c0.4-0.1,1-0.3,1.7-0.2c0.5-0.2,1.2-0.1,2.1-0.2
				c0,0.1-0.4,0.1-0.4,0.2c0.3,0,0.4-0.1,0.5-0.2c0.2,0.1,0.8,0,1.2,0c0.3,0,0.1-0.2,0.4-0.2c1.3-0.1,2.4,0.1,3.5,0
				c0.3,0,0.5-0.1,0.8-0.1c0.8,0,1.6,0.1,2.4,0.1c0.2,0,0.5,0,0.8,0c0.2,0,0.4,0.1,0.6,0.1c0.2,0,0.4,0,0.6,0c0.9,0,2,0.2,3,0.4
				c0,0.2-0.5,0-0.9,0c-0.2,0-0.8,0.2-0.9-0.1c-0.4-0.1-0.3,0.2-0.8,0.1c0-0.1-0.1-0.2-0.2-0.2c0,0.1-0.5,0.2-0.8,0
				c-0.2,0.2,0.5,0.1,0.3,0.3c-0.8,0-1.2,0-1.9,0c-0.1,0.2,0.5,0.1,0.3,0.4c-0.9-0.2-1.5,0.1-2.1-0.2c-0.3,0-0.3,0.1-0.1,0.2
				c-0.3,0.1-0.5-0.1-0.5,0c-0.3,0,0.2-0.1,0.1-0.2C101.8,4,101.2,4,100.3,4c0,0.1,0.1,0,0.2,0.1c-0.4,0-1.6,0.1-2.2,0
				c-0.4,0-0.3,0.2-0.7,0.2c-0.1-0.1-0.4-0.1-0.7-0.1c-0.2,0-0.2,0.1-0.2,0.1c-0.3,0-0.7-0.1-0.7,0.1c0.1,0.1,0.7,0,1,0
				c0,0.1,0,0.2,0.4,0.2c0.1,0,0.1-0.1,0.2-0.1c-0.1-0.1-0.3,0-0.2-0.2c1.5,0,2.6,0,3.7,0c1.1,0,2.1,0,3.6,0.1c0.1,0.1,0,0.1,0,0.2
				c0.8,0,1.5,0,2.1,0.1c0.1,0,0.1-0.1,0.3-0.1c0.3,0.1,0.7,0.1,0.6,0.3c0.3,0,0.4,0,0.3-0.2c0.1,0.1,0.1,0.1,0.4,0.2
				c-0.1,0.2-0.5,0.2-0.8,0.3c-0.4-0.1-0.4-0.1-1.1-0.1c-0.2-0.2,0.4,0,0.4-0.2c-0.2-0.2-1-0.1-0.6,0.1c-0.5-0.1-0.7,0.1-1-0.1
				c0-0.1,0.2-0.1,0.4-0.1c-0.2-0.2-0.8-0.1-0.7,0.1c-0.6-0.1-1.3-0.2-2.1-0.1c-0.3,0-0.5-0.1-0.8-0.2c-0.1,0-0.1,0.1-0.3,0.1
				c-1.1,0-2.6,0-3.6-0.1c-0.1-0.2,0.4-0.1,0.6-0.1c-0.4-0.2-0.9,0.1-1.1,0.2c-0.8,0-1.4,0-2.1,0c-0.3,0-0.7,0-1,0
				c-0.3,0-0.7,0.1-1.1,0.1c-0.1-0.1-0.4,0-0.1-0.1c-0.4,0-0.3,0.1-0.5,0.1c-1,0-2.1,0.1-2.9,0.2c-0.5,0.1-1,0.2-1.5,0.2
				c-0.4,0.1-0.6,0-1,0.1c-0.2,0-0.4,0.1-0.6,0.1c-0.2,0-0.3-0.1-0.5,0c-0.2,0-1.2,0.2-1.4,0.3c-0.1,0-0.1,0.1-0.2,0.1
				c-0.3,0-0.4,0-0.8,0.1c-0.4,0.1-0.5,0-0.7,0.2c-0.4,0.1-0.4,0-0.9,0.1c0,0,0.2,0,0.4,0c-0.1,0.2-0.4,0.1-0.7,0.2
				c-1.5,0.3-2.8,0.7-4.7,1c-0.6,0.1-1.6,0.4-2.4,0.7c-0.2,0.1-0.3,0-0.5,0.1c-0.5,0.1-1,0.4-1.3,0.3c-0.1,0.1-1.1,0.5-1.4,0.5
				c-0.1,0,0.3-0.1,0.3-0.2c0-0.1-0.7,0.1-0.5,0.2c-0.2,0-0.5,0.1-0.9,0.2c0,0,0.1,0,0.2,0c-0.4,0.2-1.4,0.5-2.1,0.7
				c-0.4,0.1-0.9,0.2-1.7,0.5c0.1,0,0.6-0.2,0.5,0c-0.7,0.2-0.7,0.4-1.5,0.6c-0.4,0.1-0.9,0.3-1.4,0.5c0,0,0.2-0.1,0.3-0.2
				c-0.3,0-0.8,0.3-0.4,0.3c-0.3,0.1-0.4,0.2-0.5,0.1c-0.6,0.4-1.7,0.8-2.5,1.2c0.3-0.3-0.5,0.1-0.7,0.2c0.1,0.1,0.5-0.3,0.5-0.1
				c-1.1,0.5-2.3,1.1-3.1,1.5c0-0.1-0.1,0-0.1,0l-0.3,0.2c-0.5,0.2-1,0.5-1.4,0.7c-0.8,0.4-1.6,0.9-2.4,1.4
				c-0.2,0.1-0.4,0.3-0.6,0.4c-0.9,0.5-2.4,1.5-3.5,2.2c-0.3,0.2-0.6,0.4-0.9,0.6c-0.6,0.5-1.3,0.9-1.9,1.3
				c-0.8,0.6-1.6,1.1-2.2,1.7c-0.2,0.1-0.2,0.2-0.4,0.3c-0.2,0.1-0.3,0.2-0.4,0.3c-0.2,0.2-0.5,0.4-0.8,0.6c-1.2,0.9-1.3,1-2.4,2
				c0,0,0.1-0.1,0.1-0.1l0.7-0.6c0.2-0.2,0-0.1,0.1-0.1c-0.2,0.2-0.1,0.1-0.3,0.3c-0.2,0.2-0.1,0.1-0.2,0.1
				c-0.2,0.1-0.2,0.2-0.3,0.2C40.6,26.3,40.5,26.3,40.4,26.5z M98.7,4.5c0.2,0,0.5,0.3,0.7,0.1C99.2,4.6,98.9,4.4,98.7,4.5z
				 M103.9,3.8c0.2,0.1,0.6,0.1,0.9,0.2c0.1-0.2-0.6-0.4-0.7-0.3C104.4,3.7,103.9,3.7,103.9,3.8z M102.7,3.1c0,0.1,0.8,0.2,1,0.1
				C103.4,3.2,103.2,3.1,102.7,3.1z M98.5,3.3c0.3,0,1,0.1,1.1-0.1C99.2,3.3,98.8,3.1,98.5,3.3z M95.3,4.6c0.2,0.1,1.1-0.1,0.9-0.1
				C96.1,4.6,95.4,4.5,95.3,4.6z M87,4.5c0.3,0,0.6,0,0.9-0.2C87.6,4.4,87,4.4,87,4.5z M83.3,5.3c0,0.1,0.3-0.1,0.4-0.2l-1.1,0.2
				C82.5,5.5,83.1,5.3,83.3,5.3z M69,9.5c0.4-0.1,0.5-0.2,0.6-0.3C69.3,9.3,69,9.4,69,9.5z M68.5,10c0.4-0.2,1.4-0.3,1.5-0.5
				c-0.5,0.1-0.2,0-0.3,0.2C69.3,9.9,68.5,9.8,68.5,10z M66,11c0.2,0,0.7-0.3,0.7-0.4C66.2,10.8,66.2,10.9,66,11z M65.8,11.1
				c-0.3,0.1-0.4,0.1-0.7,0.2C64.9,11.4,65.7,11.2,65.8,11.1z M60.7,12.5l0.4-0.2C61.3,12.1,60.6,12.5,60.7,12.5z M59.1,13.3
				c0.6-0.3,0.4,0,0.9-0.3c0-0.1-0.4,0.1-0.6,0.2c-0.2,0,0.3-0.2,0.2-0.2C59.2,13.1,59.2,13.2,59.1,13.3z M55.5,15l-0.4,0.3
				C55.1,15.4,55.7,15,55.5,15z M55,15.6c0.3-0.2,0.5-0.3,0.6-0.4c-0.1,0.1-0.2,0.1-0.2,0.1C55.1,15.4,55,15.5,55,15.6z M49.6,18.9
				c-0.2,0.1-0.3,0.1-0.6,0.3c-0.1,0.2,0.3-0.1,0.4-0.2c0,0,0,0,0,0C49.4,19,49.6,18.9,49.6,18.9c0.1-0.1,0.3-0.2,0.4-0.2
				C50.1,18.5,49.8,18.7,49.6,18.9z M50.3,18.3l0.5-0.3C50.9,17.8,50.1,18.4,50.3,18.3z M51.2,17.8c-0.1,0-0.5,0.3-0.7,0.4
				c0,0-0.3,0.2-0.3,0.3C50.6,18.3,50.8,18.1,51.2,17.8z M52,17.1c-0.3,0.2-0.3,0.2-0.5,0.4c-0.1,0.1-0.6,0.3-0.5,0.4
				C51.2,17.7,52,17.2,52,17.1z M53.6,16.1c-0.3,0.2-0.5,0.3-0.5,0.4C53.4,16.3,53.7,16.2,53.6,16.1z M43.7,23.7c0,0,0,0,0.3-0.2
				c0.2-0.2,0.2-0.2,0.1-0.1C43.8,23.6,43.9,23.6,43.7,23.7z M42.4,24.8c0.1-0.1,0.2-0.1,0.2-0.1c-0.1,0.1-0.2,0.2-0.1,0.1
				c0.2-0.2,0.3-0.2,0.7-0.5c0-0.1-0.4,0.3-0.6,0.4C42.6,24.6,42.4,24.8,42.4,24.8z M111.8,5.1c0.6,0.1,0.7,0,1.3-0.1
				c0.3,0.1,0.6,0.3,0.8,0.5c-0.3,0.2-0.9,0.1-1.4,0.2c0.2-0.1,0.5-0.2,0.9-0.1c0.1-0.2-0.1-0.2-0.5-0.3c-0.1,0.3-1.6,0.4-1.7-0.1
				c0.3,0,0.4,0.2,0.6,0.1c-0.5-0.3-1.5,0-1.8-0.3l0,0.2c0.5,0.1,0.6,0,1,0c0.2,0.4-1.2,0.2-1.2,0c-0.4,0-0.6,0-1-0.1
				c0.1-0.1,0.5,0,0.5-0.2c0.2,0,0.1,0.2,0.3,0.2c0.2,0,0.1-0.2,0.3-0.2c0-0.1-0.3-0.1-0.5-0.1c0.2-0.2,0.7-0.2,1.2-0.2
				C110.9,4.9,111.4,5.1,111.8,5.1z M111.9,4.4c0.1,0,0.2,0,0.4,0.1c-0.3,0.1,0.2,0.1,0.1,0.3C111.9,4.7,111.9,4.5,111.9,4.4z
				 M109.7,4.5c-0.5-0.1-0.4,0-0.7-0.1C109,4.3,109.9,4.3,109.7,4.5z"/>
		</g>
	</g>
</g>
<g id="圖層_5">
</g>
</svg>
